<svg xmlns="http://www.w3.org/2000/svg" viewBox="0 0 145 145"><defs><style>.cls-1{fill:#cc5256;}.cls-2{fill:#666;}.cls-3{fill:#4d4d4d;}.cls-4{fill:#00a99d;}.cls-5{fill:#fbb03b;}.cls-6{fill:none;stroke:#4d4d4d;stroke-linecap:round;stroke-linejoin:round;stroke-width:2.78px;}</style></defs><title>Asset 2</title><g id="Layer_2" data-name="Layer 2"><g id="objects"><circle class="cls-1" cx="72.5" cy="72.5" r="72.5"/><rect class="cls-2" x="33.07" y="19.85" width="78.87" height="105.31" rx="8.35" ry="8.35"/><path class="cls-3" d="M103.58,19.85H72.5v105.3h31.08a8.35,8.35,0,0,0,8.35-8.35V28.2A8.35,8.35,0,0,0,103.58,19.85Z"/><rect class="cls-4" x="41.65" y="30.28" width="61.47" height="20.88" rx="1.39" ry="1.39"/><rect class="cls-5" x="41.65" y="61.37" width="13.45" height="13.45" rx="1.39" ry="1.39"/><rect class="cls-5" x="65.77" y="61.37" width="13.45" height="13.45" rx="1.39" ry="1.39"/><rect class="cls-5" x="89.67" y="61.37" width="13.45" height="13.45" rx="1.39" ry="1.39"/><rect class="cls-5" x="41.65" y="81.78" width="13.45" height="13.45" rx="1.39" ry="1.39"/><rect class="cls-5" x="65.77" y="81.78" width="13.45" height="13.45" rx="1.39" ry="1.39"/><rect class="cls-5" x="89.67" y="81.78" width="13.45" height="13.45" rx="1.39" ry="1.39"/><rect class="cls-5" x="41.65" y="102.19" width="13.45" height="13.45" rx="1.39" ry="1.39"/><rect class="cls-5" x="65.77" y="102.19" width="13.45" height="13.45" rx="1.39" ry="1.39"/><rect class="cls-5" x="89.67" y="102.19" width="13.45" height="13.45" rx="1.39" ry="1.39"/><polyline class="cls-6" points="96.39 35.65 96.39 47.13 89.67 47.13 89.67 35.65 82.53 35.65 82.53 47.13 75.4 47.13"/></g></g></svg>