<svg xmlns="http://www.w3.org/2000/svg" viewBox="0 0 174.33 145"><defs><style>.cls-1{fill:#cc5256;}.cls-2{fill:#acd2e2;}.cls-3{fill:#cbdbe2;}.cls-4{fill:#4d4d4d;}</style></defs><title>Asset 4</title><g id="Layer_2" data-name="Layer 2"><g id="objects"><circle class="cls-1" cx="87.17" cy="72.5" r="72.5"/><path class="cls-2" d="M136.22,101A28.45,28.45,0,1,1,164.67,72.5,28.45,28.45,0,0,1,136.22,101Z"/><path class="cls-3" d="M164.67,72.5h-56.9a28.45,28.45,0,1,0,56.9,0Z"/><path class="cls-2" d="M38.11,101A28.45,28.45,0,1,1,66.56,72.5,28.45,28.45,0,0,1,38.11,101Z"/><path class="cls-3" d="M66.56,72.5H9.66a28.45,28.45,0,0,0,56.9,0Z"/><path class="cls-4" d="M173.31,69.81h-3.4a33.74,33.74,0,0,0-67.26,0h-1c-1-6.31-7.39-11.47-14.46-11.47S73.77,63.5,72.77,69.81H71.68a33.74,33.74,0,0,0-67.26,0H1a1,1,0,0,0-1,1v3.41a1,1,0,0,0,1,1h3.4a33.73,33.73,0,0,0,67.24,0H77a1,1,0,0,0,1-1V71.83s0-.08,0-.12c0-4.49,5-8,9.21-8s9.21,3.48,9.21,8v2.55a1,1,0,0,0,1,1h5.19a33.73,33.73,0,0,0,67.24,0h3.41a1,1,0,0,0,1-1V70.84A1,1,0,0,0,173.31,69.81Zm-37,31.08A28.39,28.39,0,1,1,164.67,72.5,28.43,28.43,0,0,1,136.28,100.89Zm-98.23,0A28.39,28.39,0,1,1,66.44,72.5,28.43,28.43,0,0,1,38.05,100.89Z"/></g></g></svg>