<svg xmlns="http://www.w3.org/2000/svg" viewBox="0 0 145 145"><defs><style>.cls-1{fill:#47ccc2;}.cls-2{fill:gray;}.cls-3{fill:#f7931e;}.cls-4{fill:#fbb03b;}.cls-5{fill:#4d4d4d;}</style></defs><title>Asset 9</title><g id="Layer_2" data-name="Layer 2"><g id="objects"><circle class="cls-1" cx="72.5" cy="72.5" r="72.5"/><rect class="cls-2" x="94.1" y="17.23" width="2.14" height="65.21" transform="translate(-7.35 81.93) rotate(-45.03)"/><rect class="cls-2" x="86.62" y="24.71" width="2.14" height="65.21" transform="translate(-14.84 78.79) rotate(-45)"/><rect class="cls-2" x="79.15" y="36.53" width="2.14" height="56.51" transform="translate(-22.32 75.69) rotate(-45)"/><rect class="cls-2" x="70.55" y="47.64" width="2.13" height="47.02" transform="translate(-29.33 71.46) rotate(-44.99)"/><rect class="cls-2" x="109.05" y="6.63" width="2.14" height="56.51" transform="translate(7.6 88.11) rotate(-45.02)"/><rect class="cls-2" x="116.52" y="-0.84" width="2.13" height="56.51" transform="translate(15.05 91.16) rotate(-44.99)"/><rect class="cls-2" x="101.57" y="9.76" width="2.14" height="65.21" transform="translate(0.12 85) rotate(-45.01)"/><rect class="cls-2" x="51.74" y="48.77" width="86.85" height="2.13" transform="translate(-7.37 81.87) rotate(-44.99)"/><rect class="cls-2" x="57.72" y="54.75" width="86.85" height="2.14" transform="translate(-9.86 87.83) rotate(-44.98)"/><rect class="cls-2" x="69.17" y="60.74" width="75.93" height="2.13" transform="translate(-12.32 93.86) rotate(-45)"/><rect class="cls-2" x="45.23" y="36.8" width="75.93" height="2.13" transform="translate(-2.39 69.96) rotate(-45.03)"/><rect class="cls-2" x="83.21" y="65.6" width="62.04" height="2.14" transform="translate(-13.69 100.3) rotate(-45)"/><rect class="cls-2" x="44.61" y="30.82" width="65.21" height="2.13" transform="translate(0.06 63.92) rotate(-44.99)"/><rect class="cls-2" x="45.75" y="42.79" width="86.85" height="2.13" transform="translate(-4.88 75.92) rotate(-45.01)"/><path class="cls-3" d="M123.7,76.31c18.74-18.74,21.62-46.25,6.43-61.44S87.43,2.56,68.69,21.3c-16,16-16.53,36.3-19.08,53.94S6.44,125.69,6.44,125.69l-.06.08a4.52,4.52,0,0,0,.07,6.33l6.45,6.45a4.51,4.51,0,0,0,6.33.06l.08-.05S51.1,96.9,68.71,94.35,107.7,92.31,123.7,76.31Zm-54.92-.09C56.61,64.05,58.91,42,73.92,27S111,9.69,123.14,21.86,133,56.06,118,71.08,81,88.39,68.78,76.22Z"/><path class="cls-4" d="M123.7,76.31c18.74-18.74,21.62-46.25,6.43-61.44l-7,7C135.31,34,133,56.06,118,71.08S81,88.39,68.78,76.22l-59.1,59.1,3.22,3.23a4.51,4.51,0,0,0,6.33.06l.08-.05S51.1,96.9,68.71,94.35,107.7,92.31,123.7,76.31Z"/><path class="cls-5" d="M18.63,115.09c-3.15,2.88-6,5.34-8.09,7.16l12.1,12.1c1.76-2.19,4.14-5.07,7-8.3Z"/><path class="cls-5" d="M35.46,119.49,25,109.06c-1.09,1.06-2.17,2.09-3.22,3.08l10.65,10.65C33.43,121.71,34.43,120.6,35.46,119.49Z"/></g></g></svg>