<svg xmlns="http://www.w3.org/2000/svg" viewBox="0 0 145 167.17"><defs><style>.cls-1{fill:gray;}.cls-2{fill:#f2f2f2;}.cls-3{fill:#29abe2;}.cls-4{fill:#c1272d;}.cls-5{fill:#2391bf;}.cls-6{fill:#cc5256;}.cls-7{fill:#4d4d4d;}.cls-8{fill:#f7931e;}.cls-9{fill:#fbb03b;}</style></defs><title>Asset 7</title><g id="Layer_2" data-name="Layer 2"><g id="objects"><circle class="cls-1" cx="72.5" cy="86.09" r="72.5"/><path class="cls-2" d="M73.63,40.19c-62.13,9.13-69,50.31-59.18,73.12,12.51,29.17,37,36.38,62.17,25.57,12.32-5.28,34.92-15,29.84-26.81-6.85-16,1.08-17.8,11.78-22.39C144,78.62,144.7,29.75,73.63,40.19ZM124.08,63c1.72,7-3.57,14.35-11.8,16.37s-16.32-2-18-9.06S97.81,56,106.05,54,122.36,56,124.08,63Z"/><path class="cls-3" d="M57.75,119.28A9.13,9.13,0,1,1,45,120.47,9.06,9.06,0,0,1,57.75,119.28Z"/><path class="cls-4" d="M43,107.82c1.83,4.28-.64,9.44-5.53,11.54s-10.32.33-12.16-4S26,106,30.87,103.88,41.21,103.55,43,107.82Z"/><path class="cls-5" d="M45.1,86.68c0,5.39-5.2,9.77-11.68,9.81s-11.75-4.31-11.77-9.7S26.85,77,33.33,77,45.08,81.3,45.1,86.68Z"/><path class="cls-6" d="M51.55,61c1.7,4-.68,8.77-5.31,10.76s-9.76.39-11.46-3.56.68-8.77,5.32-10.76S49.86,57,51.55,61Z"/><rect class="cls-1" x="67.85" y="48.32" width="9.47" height="16.3" transform="translate(-10.57 17.19) rotate(-12.59)"/><path class="cls-7" d="M80.6,34.77c2,8.94-2,15.72-8.7,17.21S58.09,46.83,56.14,38.07c-3.77-16.83,4.47-36.6,6.1-29.3C65.24,22.19,78.57,25.67,80.6,34.77Z"/><path class="cls-8" d="M101,161.93a4.21,4.21,0,0,1-3.18,5l-.52.11a4.2,4.2,0,0,1-5-3.19l-25-97.33a4.21,4.21,0,0,1,3.19-5L77.15,60a4.2,4.2,0,0,1,5,3.19Z"/><rect class="cls-1" x="87.46" y="45.11" width="16.3" height="9.47" transform="translate(30.97 136.14) rotate(-80.7)"/><path class="cls-7" d="M86.36,28.63C84.87,37.68,89.3,44.21,96,45.32S109.52,39.38,111,30.53c2.79-17-6.56-36.29-7.78-28.91C101,15.19,87.86,19.43,86.36,28.63Z"/><path class="cls-9" d="M73.29,156.76a4.2,4.2,0,0,0,3.47,4.83l.52.09a4.21,4.21,0,0,0,4.83-3.48l19.36-98.61A4.21,4.21,0,0,0,98,54.76l-6.75-1.1a4.2,4.2,0,0,0-4.83,3.47Z"/></g></g></svg>