<svg xmlns="http://www.w3.org/2000/svg" viewBox="0 0 145 145"><defs><style>.cls-1{fill:#47ccc2;}.cls-2{fill:#fbb03b;}.cls-3{fill:#c1272d;}.cls-4{fill:#b3232a;}.cls-5{fill:#f7931e;}.cls-6{fill:#eb8b1b;}.cls-7{fill:gray;}</style></defs><title>Asset 3</title><g id="Layer_2" data-name="Layer 2"><g id="objects"><circle class="cls-1" cx="72.5" cy="72.5" r="72.5"/><rect class="cls-2" x="33.39" y="29.55" width="21.85" height="23.17" rx="6.62" ry="6.62"/><rect class="cls-2" x="88.74" y="29.55" width="21.85" height="23.17" rx="6.62" ry="6.62"/><path class="cls-3" d="M122.72,109.31a2.41,2.41,0,0,1-2.62,2.14H24.69a2.41,2.41,0,0,1-2.61-2.14v-47a2.41,2.41,0,0,1,2.61-2.14H120.1a2.42,2.42,0,0,1,2.62,2.14Z"/><path class="cls-4" d="M22.2,73.32h-.06v36a2.41,2.41,0,0,0,2.61,2.14H72.56V73.32Z"/><path class="cls-2" d="M106.17,97.35a2.74,2.74,0,0,1-2.49,2.94h-63a2.74,2.74,0,0,1-2.49-2.94v-24a2.74,2.74,0,0,1,2.49-2.94h63a2.74,2.74,0,0,1,2.49,2.94Z"/><path class="cls-5" d="M125.56,71.12a2.48,2.48,0,0,1-2.69,2.2H22.13a2.48,2.48,0,0,1-2.69-2.2V44.91a2.48,2.48,0,0,1,2.69-2.2H122.87a2.48,2.48,0,0,1,2.69,2.2Z"/><path class="cls-6" d="M72.56,73.32V42.71H22.2a2.49,2.49,0,0,0-2.7,2.2V71.12a2.48,2.48,0,0,0,2.64,2.2H72.56Z"/><path class="cls-7" d="M53.85,93.62a2.18,2.18,0,0,1-2.27,2.07H48.3A2.18,2.18,0,0,1,46,93.62V82.82a2.18,2.18,0,0,1,2.27-2.08h3.28a2.18,2.18,0,0,1,2.27,2.08Z"/><path class="cls-3" d="M55.56,86.63a3.1,3.1,0,0,1-3.27,2.91H47.58a3.11,3.11,0,0,1-3.27-2.91V63.57a3.11,3.11,0,0,1,3.27-2.91h4.71a3.1,3.1,0,0,1,3.27,2.91Z"/><path class="cls-7" d="M98,93.62a2.18,2.18,0,0,1-2.27,2.07H92.4a2.18,2.18,0,0,1-2.27-2.07V82.82a2.18,2.18,0,0,1,2.27-2.08h3.28A2.18,2.18,0,0,1,98,82.82Z"/><path class="cls-3" d="M99.67,86.63a3.11,3.11,0,0,1-3.27,2.91H91.69a3.1,3.1,0,0,1-3.27-2.91V63.57a3.1,3.1,0,0,1,3.27-2.91H96.4a3.11,3.11,0,0,1,3.27,2.91Z"/><rect class="cls-5" x="60.85" y="83.96" width="21.62" height="11.73" rx="2.94" ry="2.94"/></g></g></svg>