<svg xmlns="http://www.w3.org/2000/svg" viewBox="0 0 145 145"><defs><style>.cls-1{fill:gray;}.cls-2{fill:#cc5256;}.cls-3{fill:#c1272d;}.cls-4{fill:#29abe2;}.cls-5{fill:#2391bf;}.cls-6{fill:#fbb03b;}.cls-7{fill:#f7931e;}.cls-8{fill:#47ccc2;}.cls-9{fill:#00a99d;}</style></defs><title>Asset 10</title><g id="Layer_2" data-name="Layer 2"><g id="objects"><circle class="cls-1" cx="72.5" cy="72.5" r="72.5"/><path class="cls-2" d="M43,38.77,36.39,20,29.75,38.77v80.88A5.39,5.39,0,0,0,35.14,125h2.52a5.39,5.39,0,0,0,5.39-5.39V38.77Z"/><path class="cls-3" d="M43,38.76,36.4,20V125h1.26a5.39,5.39,0,0,0,5.39-5.39V38.76Z"/><path class="cls-4" d="M67.1,38.77,60.46,20,53.82,38.77v80.88A5.38,5.38,0,0,0,59.2,125h2.53a5.38,5.38,0,0,0,5.38-5.39V38.77Z"/><path class="cls-5" d="M67.1,38.76,60.47,20V125h1.26a5.38,5.38,0,0,0,5.38-5.39V38.76Z"/><path class="cls-6" d="M91.17,38.77,84.53,20,77.89,38.77v80.88A5.38,5.38,0,0,0,83.27,125H85.8a5.38,5.38,0,0,0,5.38-5.39V38.77Z"/><path class="cls-7" d="M91.17,38.76,84.53,20V125H85.8a5.38,5.38,0,0,0,5.38-5.39V38.76Z"/><path class="cls-8" d="M115.24,38.77,108.6,20,102,38.77v80.88a5.39,5.39,0,0,0,5.39,5.39h2.52a5.39,5.39,0,0,0,5.39-5.39V38.77Z"/><path class="cls-9" d="M115.24,38.76,108.6,20V125h1.26a5.39,5.39,0,0,0,5.39-5.39V38.76Z"/></g></g></svg>