<svg xmlns="http://www.w3.org/2000/svg" viewBox="0 0 145 145"><defs><style>.cls-1{fill:#58a9cc;}.cls-2{fill:#cc5256;}.cls-3{fill:#c1272d;}.cls-4{fill:#e6e6e6;}.cls-5{fill:#f2f2f2;}.cls-6{fill:#fbb03b;}</style></defs><title>Asset 8</title><g id="Layer_2" data-name="Layer 2"><g id="objects"><circle class="cls-1" cx="72.5" cy="72.5" r="72.5"/><path class="cls-2" d="M124,39.4H21v71H65.82c1,2,3.9,3.46,7.38,3.46s6.41-1.46,7.37-3.46H124Z"/><path class="cls-3" d="M21,38.72V110.4H65.36c.93,2,3.77,3.4,7.14,3.46V38.72Z"/><path class="cls-4" d="M26,102.23c33,0,47,8.38,47,8.38V38.88s-14-8.37-47-8.37Z"/><path class="cls-5" d="M120,102.23c-33,0-47,8.38-47,8.38V38.88s14-8.37,47-8.37Z"/><path class="cls-6" d="M82.38,53.79,87,57.57V34c-3,.51-8,2-9,2.71V57.57Z"/></g></g></svg>