<svg xmlns="http://www.w3.org/2000/svg" viewBox="0 0 184.24 145"><defs><style>.cls-1{fill:#cc5256;}.cls-2{fill:#fbb03b;}.cls-3{fill:#f7931e;}.cls-4{fill:#666;}.cls-5{fill:#4d4d4d;}.cls-6{fill:gray;}</style></defs><title>Asset 1</title><g id="Layer_2" data-name="Layer 2"><g id="objects"><circle class="cls-1" cx="92.12" cy="72.5" r="72.5"/><rect class="cls-2" x="12.57" y="46.33" width="4.46" height="79.14"/><path class="cls-2" d="M21.76,144.1a.84.84,0,0,1-.84.84H8.69a.83.83,0,0,1-.84-.84l2.53-14.62a.84.84,0,0,1,.84-.84h7.17a.85.85,0,0,1,.84.84Z"/><path class="cls-3" d="M19.21,126.56a4.41,4.41,0,1,1-4.41-4.41A4.41,4.41,0,0,1,19.21,126.56Z"/><path class="cls-4" d="M145.09,53.71H39.15V83.45h0c0,.33,0,.67,0,1a29,29,0,0,0,29,29h47.86a29,29,0,0,0,29-29c0-.33,0-.67,0-1h0Z"/><path class="cls-5" d="M145.09,53.71h-53v59.78h23.93a29,29,0,0,0,29-29c0-.33,0-.67,0-1h0Z"/><polygon class="cls-6" points="92.12 76.98 0 50.02 92.12 23.05 184.24 50.02 92.12 76.98"/></g></g></svg>