<svg xmlns="http://www.w3.org/2000/svg" viewBox="0 0 145 145"><defs><style>.cls-1{fill:#58a9cc;}.cls-2{fill:#d982a2;}.cls-3{fill:#fbb03b;}.cls-4{fill:#4d4d4d;}.cls-5{fill:#fff;}.cls-6{fill:#f2f2f2;}.cls-7{fill:#f7931e;}</style></defs><title>Asset 5</title><g id="Layer_2" data-name="Layer 2"><g id="objects"><circle class="cls-1" cx="72.5" cy="72.5" r="72.5"/><path class="cls-2" d="M46.65,116.64a6.18,6.18,0,0,1-6.18,6.17h0a6.17,6.17,0,0,1-6.17-6.17V111.9a6.17,6.17,0,0,1,6.17-6.17h0a6.18,6.18,0,0,1,6.18,6.17Z"/><rect class="cls-3" x="34.3" y="39.64" width="12.34" height="69.69"/><rect class="cls-4" x="38.42" y="39.64" width="4.12" height="69.69"/><polygon class="cls-4" points="40.47 22.19 34.3 39.65 46.63 39.65 40.47 22.19 34.3 39.65 46.63 39.65 40.47 22.19"/><rect class="cls-4" x="34.3" y="109.34" width="12.34" height="5.07"/><polygon class="cls-5" points="60.9 122.81 59.49 110.05 78.14 40.9 83.72 42.48 60.9 122.81"/><polygon class="cls-6" points="112.29 122.81 113.7 110.05 95.05 40.9 89.46 42.48 112.29 122.81"/><rect class="cls-4" x="82.47" y="22.19" width="8.14" height="11.62" rx="1.6" ry="1.6"/><polygon class="cls-3" points="97.05 29.33 76.03 29.33 76.03 45.17 81.62 53.96 91.46 53.96 97.05 45.17 97.05 29.33"/><polygon class="cls-7" points="86.54 29.33 86.54 53.96 91.46 53.96 97.05 45.17 97.05 29.33 86.54 29.33"/></g></g></svg>