<?xml version="1.0" encoding="utf-8"?>
<!-- Generator: Adobe Illustrator 22.1.0, SVG Export Plug-In . SVG Version: 6.00 Build 0)  -->
<svg version="1.1" xmlns="http://www.w3.org/2000/svg" xmlns:xlink="http://www.w3.org/1999/xlink" x="0px" y="0px"
	 viewBox="0 0 750 500" style="enable-background:new 0 0 750 500;" xml:space="preserve">
<style type="text/css">
	.st0{fill:#FFFFFF;}
	.st1{clip-path:url(#SVGID_2_);}
	.st2{fill:#6EE4FF;}
	.st3{fill:#8DE260;}
	.st4{fill:#EFF2F4;}
	.st5{fill:#E2E2E2;}
	.st6{fill:#E3E4E5;}
	.st7{fill:#C5C7C9;}
	.st8{fill:#F7D2AD;}
	.st9{fill:#F7EDED;}
	.st10{fill:#0B3AAF;}
	.st11{fill:#FF8500;}
	.st12{fill:#FF0000;}
	.st13{fill:#9422D6;}
	.st14{fill:#F9BD00;}
	.st15{fill:#00CCC2;}
	.st16{fill:#808080;}
	.st17{fill:#FF9300;}
	.st18{fill:#FFB02A;}
	.st19{fill:#4C4C4C;}
</style>
<g id="BACKGROUND">
	<rect class="st0" width="750" height="500"/>
</g>
<g id="OBJECTS">
	<g>
		<g>
			<defs>
				<rect id="SVGID_1_" width="750" height="500"/>
			</defs>
			<clipPath id="SVGID_2_">
				<use xlink:href="#SVGID_1_"  style="overflow:visible;"/>
			</clipPath>
			<g class="st1">
				<path class="st2" d="M579.7-1.6h12.1c0,0,41.3,59.5,90.1,99.6c52.3,37.3,144.8,50.1,144.8,50.1v14.7c0,0-98.7-9.3-156.6-55.2
					C612.2,61.6,579.7-1.6,579.7-1.6z"/>
				<g>
					<path class="st3" d="M561.4-1.6c0.5,0,18.3,0,18.3,0l40.6,57.2l49.5,50.7l116.3,47.7l40.5,8.8v21.7l-40.8-5l-109.8-0.8l-6-6.9
						l-25.8-69L561.4-1.6z"/>
					<path class="st3" d="M474.2,224.4l9.7-5.1l11.8,14.7l6.2,9.3l116.9-108.5l9.1,10.6l-14,16c0,0,13.9,12.1,14.9,16.4
						c1.1,4.4-105.8,94.8-105.8,94.8s-4.5,2.3-9.3-2.1C508.7,266,474.2,224.4,474.2,224.4z"/>
					<path class="st3" d="M491.7,439c0,0-18.9-32.3-22.2-39.5c-3.3-7.2,0-14,0-14l40.3-43.9l3-10.9l8.7-0.9
						c0,0,129.9-121,130.5-120.7c0.6,0.3,18-1.8,18-1.8l-1.5,48.6l-14.6-0.3c0,0-4.5-0.7-4.7,2.7c-0.2,3.5-0.6,13.1-0.6,13.1
						s-0.8,4.8-2.1,6c-1.4,1.2-6.6-0.2-6.9,3.5c-0.3,3.6,3.3,5.7,3.3,5.7l0.2,6.9h143.2v16.3l-97.2-1.1c0,0,0,31.8,0,32.3
						s0.5,5.1-3.7,6.7c-4.2,1.6-8.4-2.5-8.4-2.5l-11.3-27.9l-83.3,32l4.5,13.9c0,0-21.1,8.8-25,11.5c-3.9,2.7-8,19.8-10.3,21.9
						c-2.3,2.1-33.2,5.9-33.2,5.9l89.9,125.6l-16.9,7.8l0.3-7.8l-68.2-107.1L491.7,439z"/>
				</g>
				<g>
					<path class="st4" d="M518.8,24.9h66.9c0,0,61,75.8,60.1,77.8c-0.9,2,24.1,69,24.1,69s-61-70-63.7-73.4
						c-2.7-3.4-11.5-4.6-17.5-1.3c-6,3.3-94.4,89.3-94.4,89.3l-62.5,38l-56.1-59.1c0,0,110.5-103,111-103.6c0.6-0.5-1.5-7.2-1.5-7.2
						L518.8,24.9z"/>
					<path class="st4" d="M338.5,338.2l44.1-40.4c0,0,70.4,73.4,71.5,76.3c1.1,2.8,2.1,6.1,0,7.9c-2.1,1.9-41.5,37-41.5,37
						L338.5,338.2z"/>
					<path class="st4" d="M442,244.9l5.7-5l26.4-15.5c0,0,37.9,39.1,41.8,43.5c3.9,4.4,9.8,1.2,9.8,1.2l95.7-84.5
						c0,0,5.2-3.1,1.4-7.1c-3.8-4-8.8-9.1-10.6-11.3c-1.9-2.3,0-6.6,0-6.6l15.3-13.6l36.2,41.2L520,319.3c0,0-2.7,4.5-7.1,1.8
						C508.6,318.4,442,244.9,442,244.9z"/>
					<path class="st4" d="M483.8,219.3c0.5-0.2,11.8,14.7,11.8,14.7s0.9,7.9,4.2,9.9c3.3,2,6.8-1.8,6.8-1.8l112.1-107.3l-17.7-19.3
						L483.8,219.3z"/>
					<path class="st4" d="M469.5,399.5c0.3,0.1-7.2-15.4-7.2-15.4l2.6-7.9l-2.6-7.4L389,292l45.9-40.7c0,0,63.9,68.3,69.3,74.1
						c5.3,5.8,9.4,5.4,9.4,5.4l-1.9,11.2c0,0-40.2,41.6-41.4,44.9C469,390.2,469.5,399.5,469.5,399.5z"/>
					<path class="st4" d="M608.3,528.2l-91-125.9c0,0,30.2-2.8,33.2-6.5c3-3.7,9.5-22.6,9.5-22.6l25.9-10.1c0,0-6.3-14.5-5.5-14.5
						c0.7,0,85.5-33,85.7-32.6c0.2,0.5,10.9,29.4,10.9,29.4s3.3,3.1,7.6,2.7c4.3-0.4,4.3-4.5,4.3-4.5l0.2-34.8l97.2,1.1V349
						c0,0-78.2-0.2-102.1,3.2c-23.9,3.4-94.3,35.3-94.3,35.3s-6.6-9.8-8.4-12.7s-11.2-2.4-12.3,1.8c-1,4.2,1.9,5.1,1.9,5.1l4.5-0.6
						l62.7,132.5L608.3,528.2z"/>
					<path class="st4" d="M593.6,395.2c0.7,0.2,26,57.3,26,57.3s62-24.9,66.9-27.1c4.8-2.3,36.7-7,42.1-6.9c5.4,0,57.6,0.5,57.6,0.5
						v-61c0,0-72.1-3.2-102.6,3.2C653.1,367.4,593.6,395.2,593.6,395.2z"/>
					<path class="st4" d="M656.6,263.2c0,0-0.8,8.6-0.8,11.9c0,3.3-3.2,8-5.1,8.8c-1.9,0.7-7.8,2.9-7.8,2.9l0.2,6.9h143.2v-30.5
						H656.6z"/>
					<polygon class="st4" points="670,207.4 684.4,207.4 688,210.4 786.2,210.4 786.2,255.6 667.7,255.9 					"/>
					<path class="st4" d="M622,457.2c1,2.3,23.2,52.4,23.2,52.4l43.1-16.1l44.2-8.1l49.5-1.7v-59.3h-56l-36.2,5.1L622,457.2z"/>
					<rect x="790.8" y="302.9" class="st4" width="35.9" height="181"/>
					<polygon class="st4" points="790.8,211.5 790.8,297.8 826.7,297.8 826.7,214.2 					"/>
					<polygon class="st4" points="662,199.8 673.7,199.8 667.7,193.7 					"/>
					<polygon class="st4" points="687.7,193.7 691.6,197.6 782.8,198.4 782.8,193.7 					"/>
					<polygon class="st4" points="792.1,193.7 792.1,198.4 826.7,199.8 					"/>
					<polygon class="st4" points="718.3,-1.6 773.6,-1.6 826.7,6.9 826.7,129 813.6,120.9 					"/>
					<path class="st4" d="M556.6,553.6c0,0,33.8-17.1,34.8-17.5c0.9-0.4,0.2-9,0.2-9l-67.6-107l-32.2,19L556.6,553.6z"/>
					<path class="st4" d="M336.1,342.2c0,0,72.2,80,72,79.6c-0.2-0.4-43.8,40-43.8,40l-72.2-78L336.1,342.2z"/>
					<path class="st4" d="M370.3,468.3l87.5-79.2l21.3,46.3l-41.2,33l-37.8,19.9l-5.8,3.6l-5.3,9.3v3.4l-1.4,3.6l-20.5-30
						c0,0-1.8-4.6,0-6.4C368.9,469.8,370.3,468.3,370.3,468.3z"/>
					<polygon class="st4" points="389,511.6 404.8,539.2 458.3,509.2 505.5,482 480.8,439.2 441.2,470.5 398.9,493.2 392.7,502.4 
						393.6,506.3 					"/>
					<polygon class="st4" points="456.8,521.2 495.6,588.7 549.1,558.6 508.9,489.2 					"/>
					<polygon class="st4" points="409.5,546.7 448.8,525 488,593.2 448.1,616.4 					"/>
					<path class="st4" d="M248.6,422c0.5-0.3,37.3-31.8,37.3-31.8l73,79.2l-1.5,6.9l0.5,5.7l11.9,16.3l-54.5,35L248.6,422z"/>
					<polygon class="st4" points="225.5,320.4 322,232.4 365.3,286.9 261.3,383.6 255.1,383.6 					"/>
					<path class="st4" d="M374.6,160.1L483,57.4l3.8,0.8L521,27.2l64.8-2.3L561.4-1.6H419.2h-75.8c0,0,9.5,30,11.2,33.6
						s5.1,8.3-0.1,10.7c-5.2,2.4-8.1-7-8.1-7L333.7-1.6h-45.8l-22.3,13l42.4,70L374.6,160.1z"/>
					<path class="st5" d="M561.4-1.6h-134c-36.8,29.9-73.4,60.3-108.8,94c-0.3,0.1-0.6,0.3-0.9,0.5l56.8,67.3
						c0,0,106.3-101.1,107.7-102.1c1.4-1,4.5,0.1,4.5,0.1L521,27.2l64.8-2.3L561.4-1.6z"/>
					<polygon class="st4" points="323.2,229.5 369.5,280.8 425.9,231.1 378,179.4 					"/>
					<path class="st4" d="M275.6,173.7l37.9,43.1c0,0,55.4-50.2,54.9-50.2c-0.5,0-37.9-43-37.9-43L275.6,173.7z"/>
					<path class="st6" d="M591.8-1.6L707.4-1l78.8,100.6l23.2,29.4l17.3,9.5v9.7l-40.5-7.7c0,0-71.9-11.1-111.6-46.4
						C634.9,58.7,591.8-1.6,591.8-1.6z"/>
					<polygon class="st4" points="221.7,224.4 274.2,176.7 311.2,219.7 245.6,279.8 					"/>
					<polygon class="st4" points="275.6,162.8 325.5,117.3 298.7,82.9 259.3,16.3 198.8,53.7 217.9,76.5 226.1,85.1 231.4,113.9 
						250.3,143.9 254.9,144.9 					"/>
					<polygon class="st4" points="121.5,100.8 192.7,58 219.5,88.5 223.5,115.9 244.4,149.5 244.4,154.5 264.1,173.8 192.8,238.4 
						185.5,248.8 170.4,254.9 					"/>
					<path class="st4" d="M257.7-1.5c0.2,0,4.4,6,4.4,6l13.5-6.1L257.7-1.5z"/>
					<polygon class="st4" points="190.1,-1.6 248.6,-1.6 254.3,9.1 209.4,36.2 					"/>
					<path class="st4" d="M181.5-1.5l21.9,41.4L171.8,60l-23.3-42.7c0,0-2.6-5.9,0-7.2c2.6-1.3,23.1-11.6,23.1-11.6H181.5z"/>
					<path class="st4" d="M87.7-1.6l31.4,94l46.1-28.2l-25.3-47.9c0,0-3-8.6,1.4-10.7c4.4-2.1,15.5-7.3,15.5-7.3H87.7z"/>
					<path class="st4" d="M172.2,259.1l13.7-5.2l2.2,8.6c0,0,57.3,118.9,56.5,119.1c-0.8,0.2-15.7-13.9-15.7-13.9l-14.3-28.4
						c0,0-32.8-56.9-33.4-57.1C180.7,282,172.2,259.1,172.2,259.1z"/>
					<path class="st4" d="M219.2,226.8l23.5,55.8L219.2,304l-24.3-49.1c0,0-2.8-5.4,0-7.7C197.7,244.8,219.2,226.8,219.2,226.8z"/>
					<polygon class="st4" points="318,536.9 346.5,581.3 401,550.2 372.8,502.2 					"/>
					<polygon class="st4" points="348.7,584.4 386.2,650.5 440.8,620.5 402.5,553.6 					"/>
					<polygon class="st4" points="236.4,391.3 240,404.2 250.1,397 					"/>
				</g>
				<g>
					<path class="st7" d="M416.4,432.6l17.5,19.1c0,0,31.7-29.9,32.1-29.9c0.5,0-18.3-19-18.3-19L416.4,432.6z"/>
					<polygon class="st7" points="359,199.1 375.8,184.2 397,207.2 380.9,222.1 					"/>
					<polygon class="st7" points="506.9,51.1 518.8,62.5 537.6,43.3 525.5,32 					"/>
					<polygon class="st7" points="558.5,249.3 567.5,259.2 579.7,248.3 570.4,238.5 					"/>
					<rect x="736.7" y="267.2" class="st7" width="10.1" height="23.2"/>
					<path class="st7" d="M554.3,413.4c0,0,14.8,33.9,15.2,33.5c0.4-0.4,27.1-11.2,27.1-11.2l-15.8-34.6L554.3,413.4z"/>
					<path class="st7" d="M372,133.2c0.6,0.6,7.4,7.4,7.4,7.4l11.5-11.5l-8.1-8.1L372,133.2z"/>
					<path class="st7" d="M258.8,298c0.6,0,63.4-56.6,63.4-56.6l16.4,18.4l-62,58.1L258.8,298z"/>
					<polygon class="st7" points="258.8,201 273.8,186.2 289.5,202.2 280.8,210.6 277.5,207.5 270.8,213.8 					"/>
					<polygon class="st7" points="317.6,144.3 332.4,131.3 361.7,163.6 346.8,177.3 342.5,171.7 345.3,169.7 342.2,165.9 
						344.3,164.5 339.6,159 341.6,157.4 337.3,152.5 334.4,155.1 330,149.6 327.8,151.8 325.1,148.4 323.2,150.2 					"/>
					<path class="st8" d="M202.2,248.5c-0.2-0.5,0-4,1.7-5.1c1.8-1.2,16.2-10.6,16.2-10.6l12.7,29.3l-19.7,9.5L202.2,248.5z"/>
					<polygon class="st7" points="214.9,284.8 219.5,296.5 239.1,278.7 233.9,266.9 					"/>
					<path class="st7" d="M295.9,433.9c0.5-0.2,14.6-9.1,14.6-9.1l17.3,26.9l-16,9.1L295.9,433.9z"/>
					<polygon class="st8" points="326.8,543.5 340.5,536 345.3,544.6 358.3,537.4 352.9,528.3 368,520.6 372.5,529.5 368.6,530.9 
						370.4,535.1 375,532.6 379.9,541.3 372,545.7 370.4,543.8 350.8,553.4 352.3,555.8 345.3,559.1 346.7,562.1 340.1,565.1 
						334.6,556.4 332.2,558.2 329.7,553.8 332.5,551.5 					"/>
					<polygon class="st8" points="383.8,625.8 391.8,640.7 429.4,619.9 421.4,604.6 399.5,616.3 402.1,621.7 391.3,627.4 
						388.9,623.5 					"/>
					<path class="st8" d="M562.6,512c0,0,10.1,17.9,10.1,18.2c0,0.3-12.7,6.2-12.7,6.2l-10.6-17.7l1.9-1l-1.9-3.3l6.1-3.4l2.1,3.8
						L562.6,512z"/>
					<polygon class="st7" points="562.6,512 570.9,507.5 569.7,505.4 574.5,502.9 586.9,522.2 581,525.7 581.9,527.7 578.6,529.2 
						577.5,527.6 572.7,530.2 					"/>
					<polygon class="st8" points="663.6,472.8 674.3,468.4 683.7,489.2 673.7,494.1 					"/>
					<polygon class="st8" points="794.6,457 794.6,479.7 810.1,479.7 810.1,462.2 804.8,462.2 804.8,457 					"/>
					<path class="st5" d="M230.8,431.2c-0.3-0.9,54.6,99.3,54.6,99.3l74.1,120.1l-31.7-61.8l-62.9-104.1L230.8,431.2z"/>
					<polygon class="st5" points="182.3,355.1 195.2,350 208.4,373.2 221.7,409.7 218.2,412.2 					"/>
					<polygon class="st5" points="178.1,347.6 190.4,340.7 152.4,262.5 97.8,89.5 92.4,92.4 147.3,264 159.3,306 					"/>
					<polygon class="st5" points="62.8,-1.5 84.5,67.3 90.3,65.8 64.9,-1.6 					"/>
					<path class="st5" d="M114.7,257.7l10.6-9.7l18.4,69.8l23.5,47.2L103.8,395c0,0-8.7,2.6-6.9,7c1.8,4.4,10.6,2.2,10.6,2.2
						l45-22.6L74.6,613.1c0,0-7.1-4.6-11.8-3.9c-4.6,0.7-9.4,3.9-9.4,3.9L1.6,641.1c0,0-3.9,3.3-2.7,6.3c1.2,3,8.7,0,8.7,0
						s47.6-25.7,52.2-28.4c4.6-2.6,12.1,1.2,12.1,1.2l-11.2,32.2h-93.8L-9,564.8l33.5-62.1l24.7,54.6c0,0,2.4,6,6.3,3.9
						c3.9-2.1,0.3-6.6,0.3-6.6l-27.8-61.2l30.8-65.5c0,0,22.9,41.3,22.6,42.2c-0.3,0.9,4.2,7.5,7.8,6.6c3.6-0.9-0.9-9.7-0.9-9.7
						l-26.5-50.4l41-118.9L114.7,257.7z"/>
					<path class="st5" d="M161.2,376.6l8.7-4.2l32.1,52.5l-19.7,15.1l-18.4,12.4l-7.8,24.1l26.2,8.7c0,0,4.5,2.4,6.3-1.5
						c1.8-3.9-4.8-6.3-4.8-6.3l-16.6-7.2l2.7-14.2l27.5-17.5l11.1-3l33,62.8l-5,7.5l-59.5,146.9h-34.7l31.4-73.3l28.5-77.1
						c0,0,5.2-6.5,0-8.6c-5.2-2.1-6.4,4.8-6.4,4.8l-22,58.2l-28.4-10c0,0-4.5-2.1-6,1.2c-1.5,3.3,3.6,5.6,3.6,5.6l26.5,11.6
						l-29,75.6l-8.7-4.4l6-16c0,0,2.1-6.6-1.2-7.2c-3.3-0.6-4.8,3.9-4.8,3.9l-7.5,16l-41.9-15.4l30.8-84.3l16.3,5.9
						c0,0,5.1,1.1,6.3-2.4c1.2-3.5-3.9-6-3.9-6l-15.7-5.7l45.9-136L161.2,376.6z"/>
					<polygon class="st5" points="80.5,624.4 69.6,652.5 133.6,652.5 137.2,646.7 					"/>
					<path class="st5" d="M185.7,652.5c0.8,0,101,0,101,0l16.3-35.2l7.2-8.2l-63.8-103.2L185.7,652.5z"/>
					<polygon class="st9" points="296,652.5 309.2,622.7 315.3,616.4 337.9,652.5 					"/>
					<polygon class="st5" points="-77.1,211.2 76.5,102.6 110.5,218.6 76.5,333.1 -18.1,553.6 -47,652.5 -80.2,652.5 					"/>
					<path class="st5" d="M40.8-1.5l26.2,80L23.9,109L9.4,90.6c0,0,1.1-3.2,0-4.1c-1.1-0.9-25.8-34.8-25.8-34.8s-6.8-23-7.5-24.4
						c-0.7-1.4-3.1-2.4-3.1-2.4l-6.6-25l7.2-1.4L40.8-1.5z"/>
					<path class="st5" d="M-77.1,159.3l9,14.2l89.5-62.9L6.7,92.4c0,0-2.1,1.1-4.1-0.6c-2-1.7-14-18.7-14-18.7l-39.5,28.2L-77.1,120
						V159.3z"/>
					<polygon class="st5" points="-77.1,74.7 -77.1,110.8 -15.8,67.3 -21.1,59.5 					"/>
					<path class="st5" d="M-77.1,12.6l40.6-10.7l6.7,24.5c0,0-1.6,1.7-1.2,3.3c0.5,1.6,6.6,22.8,6.6,22.8l-52.9,13.7V12.6z"/>
				</g>
			</g>
		</g>
		<g>
			<g>
				<g>
					<path class="st10" d="M73.6,298.8c0-14.9-11.5-26.9-25.6-26.9c-14.1,0-25.6,12-25.6,26.9c0,5.4,1.5,10.4,4.1,14.7h-0.1
						l21.4,39.5l20.6-38.1C71.7,310.3,73.6,304.8,73.6,298.8z"/>
					<path class="st0" d="M48,280.4c9.6,0,17.5,8.3,17.5,18.4c0,10.1-7.9,18.4-17.5,18.4c-9.6,0-17.5-8.2-17.5-18.4
						C30.5,288.6,38.3,280.4,48,280.4z"/>
				</g>
				<g>
					<path class="st10" d="M59.5,295.2c0,5-3.3,7.8-9.1,7.8h-4.2v7h-7v-22.6h11.2C56.2,287.5,59.5,290.3,59.5,295.2z M52.5,295.2
						c0-1.8-1.2-2.7-3.3-2.7h-3.1v5.4h3.1C51.3,297.9,52.5,297.1,52.5,295.2z"/>
				</g>
			</g>
			<g>
				<g>
					<path class="st11" d="M662.4,372.4c0-14.9-11.5-26.9-25.6-26.9c-14.1,0-25.6,12-25.6,26.9c0,5.4,1.5,10.4,4.1,14.7h-0.1
						l21.4,39.5l20.6-38.1C660.5,384,662.4,378.4,662.4,372.4z"/>
					<path class="st0" d="M636.8,354c9.6,0,17.5,8.3,17.5,18.4c0,10.1-7.9,18.4-17.5,18.4c-9.6,0-17.5-8.2-17.5-18.4
						C619.3,362.3,627.1,354,636.8,354z"/>
				</g>
				<g>
					<g>
						<g>
							<path class="st11" d="M634.6,363.6c-0.5-0.5-0.8-0.8-0.8-1.4c0-0.6,0.2-0.9,0.8-1.4c0.4-0.4,0.4-1.1,0-1.5
								c-0.4-0.4-1.1-0.4-1.5,0c-0.6,0.6-1.4,1.4-1.4,3c0,1.5,0.8,2.4,1.4,3c0.5,0.5,0.8,0.8,0.8,1.4c0,0.6,0.5,1.1,1.1,1.1
								c0.6,0,1.1-0.5,1.1-1.1C636,365,635.2,364.2,634.6,363.6z"/>
						</g>
					</g>
					<g>
						<g>
							<path class="st11" d="M639.7,363.6c-0.5-0.5-0.8-0.8-0.8-1.4c0-0.6,0.2-0.9,0.8-1.4c0.4-0.4,0.4-1.1,0-1.5
								c-0.4-0.4-1.1-0.4-1.5,0c-0.6,0.6-1.4,1.4-1.4,3c0,1.5,0.8,2.4,1.4,3c0.5,0.5,0.8,0.8,0.8,1.4c0,0.6,0.5,1.1,1.1,1.1
								c0.6,0,1.1-0.5,1.1-1.1C641.1,365,640.3,364.2,639.7,363.6z"/>
						</g>
					</g>
					<g>
						<g>
							<path class="st11" d="M644.1,377.8h1c0,0,0,0,0,0c2.2,0,4-1.8,4-4c0-2.2-1.8-4-4-4h-1.5h-14.5c-0.6,0-1.1,0.5-1.1,1.1v3.6
								c0,2.4,1.1,4.7,2.7,6.2h-2.4c-0.6,0-1.1,0.5-1.1,1.1c0,0.6,0.5,1.1,1.1,1.1h8h8c0.6,0,1.1-0.5,1.1-1.1c0-0.6-0.5-1.1-1.1-1.1
								H642C642.9,379.9,643.6,378.9,644.1,377.8z M644.8,374.5V372h0.4c1,0,1.8,0.8,1.8,1.8c0,1-0.8,1.8-1.8,1.8h0h-0.4
								C644.7,375.3,644.8,374.9,644.8,374.5z"/>
						</g>
					</g>
				</g>
			</g>
			<g>
				<g>
					<path class="st12" d="M207.9,101.2c0-14.9-11.5-26.9-25.6-26.9c-14.1,0-25.6,12-25.6,26.9c0,5.4,1.5,10.4,4.1,14.7h-0.1
						l21.4,39.5l20.6-38.1C206,112.8,207.9,107.3,207.9,101.2z"/>
					<path class="st0" d="M182.3,82.9c9.6,0,17.5,8.3,17.5,18.4c0,10.1-7.9,18.4-17.5,18.4c-9.6,0-17.5-8.2-17.5-18.4
						C164.8,91.1,172.6,82.9,182.3,82.9z"/>
				</g>
				<g>
					<path class="st12" d="M194.4,94.1c-0.1-0.2-0.4-0.3-0.6-0.3H176c0,0-0.1,0-0.1,0l-0.7-2.1c-0.1-0.2-0.2-0.4-0.5-0.5l-3.7-1.4
						c-0.4-0.2-0.9,0-1,0.4c-0.2,0.4,0,0.9,0.4,1l3.3,1.3l4.1,11.8c-0.2,0.1-0.3,0.2-0.4,0.4l-1.2,3.3c-0.1,0.2,0,0.4,0.1,0.6
						c0.1,0.2,0.3,0.3,0.5,0.3h0.6c-0.4,0.4-0.6,1-0.6,1.6c0,1.3,1.1,2.4,2.4,2.4c1.3,0,2.4-1.1,2.4-2.4c0-0.6-0.2-1.2-0.6-1.6h5.2
						c-0.4,0.4-0.6,1-0.6,1.6c0,1.3,1.1,2.4,2.4,2.4c1.3,0,2.4-1.1,2.4-2.4c0-0.6-0.2-1.2-0.6-1.6h0.7c0.4,0,0.7-0.3,0.7-0.7
						c0-0.4-0.3-0.7-0.7-0.7h-12.6l0.7-2c0.1,0,0.2,0.1,0.3,0.1h11.6c0.3,0,0.6-0.2,0.8-0.5l3.3-10.3
						C194.6,94.5,194.6,94.3,194.4,94.1z M179.3,111.5c-0.6,0-1.1-0.5-1.1-1.1c0-0.6,0.5-1.1,1.1-1.1c0.6,0,1.1,0.5,1.1,1.1
						C180.4,111,179.9,111.5,179.3,111.5z M188,111.5c-0.6,0-1.1-0.5-1.1-1.1c0-0.6,0.5-1.1,1.1-1.1c0.6,0,1.1,0.5,1.1,1.1
						C189.1,111,188.6,111.5,188,111.5z M192.1,97.1h-4v-1.8h4.6L192.1,97.1z M191,100.7h-2.9v-2h3.5L191,100.7z M182.9,100.7v-2
						h3.6v2H182.9z M186.5,102.3v1.7h-3.6v-1.7H186.5z M177.6,98.7h3.7v2h-3L177.6,98.7z M182.9,97.1v-1.8h3.6v1.8H182.9z
						 M181.3,95.3v1.8h-4.2l-0.6-1.8H181.3z M178.9,102.3h2.4v1.7h-1.8L178.9,102.3z M188.1,104v-1.7h2.4l-0.5,1.7H188.1z"/>
				</g>
			</g>
			<g>
				<g>
					<path class="st13" d="M604.4,146.5c0-14.9-11.5-26.9-25.6-26.9c-14.1,0-25.6,12-25.6,26.9c0,5.4,1.5,10.4,4.1,14.7h-0.1
						l21.4,39.5l20.6-38.1C602.5,158.1,604.4,152.5,604.4,146.5z"/>
					<path class="st0" d="M578.8,128.1c9.6,0,17.5,8.3,17.5,18.4c0,10.1-7.9,18.4-17.5,18.4c-9.6,0-17.5-8.2-17.5-18.4
						C561.3,136.4,569.2,128.1,578.8,128.1z"/>
				</g>
				<g>
					<path class="st13" d="M587.5,143.8c-0.2,0-0.4,0-0.6,0l-1.3-4.6c0.1-0.2,0.2-0.3,0.2-0.6c0-0.5-0.4-0.9-0.9-0.9h-3.6
						c-0.5,0-0.9,0.4-0.9,0.9c0,0.5,0.4,0.9,0.9,0.9h2.3l-0.9,1.5c0,0-0.1,0-0.1,0l-7.8,0.1c0.2-0.2,0.3-0.4,0.3-0.7
						c0-0.5-0.4-0.9-0.9-0.9h-2.1c-0.5,0-0.9,0.4-0.9,0.9c0,0.5,0.4,0.9,0.9,0.9h0.2c0,0.1,0.1,0.2,0.1,0.2l0.3,0.6l-1,1.9
						c-0.5-0.2-1.1-0.2-1.6-0.2c-3,0-5.4,2.4-5.4,5.4c0,3,2.4,5.4,5.4,5.4c2.6,0,4.7-1.8,5.2-4.2l2.9,0.2c0,0,0,0,0.1,0
						c0.3,0,0.6-0.2,0.7-0.4l5.4-8.6l0.8,2.8c-1.8,0.9-3,2.7-3,4.8c0,3,2.4,5.4,5.4,5.4c3,0,5.4-2.4,5.4-5.4
						C592.9,146.2,590.5,143.8,587.5,143.8z M573.8,143.9l2.9,4.8l-1.2-0.1c-0.2-1.5-1-2.9-2.2-3.8L573.8,143.9z M566.5,149.1
						c0-2,1.6-3.6,3.6-3.6c0.3,0,0.6,0,0.8,0.1l-1.6,3.1c-0.1,0.3-0.1,0.6,0,0.8c0.1,0.3,0.4,0.4,0.7,0.4l3.5,0.2
						c-0.5,1.5-1.8,2.6-3.5,2.6C568.1,152.8,566.5,151.1,566.5,149.1z M571.5,148.3l1-2c0.6,0.5,1,1.3,1.2,2.1L571.5,148.3z
						 M578.3,148l-3.1-5.1l6.4-0.1L578.3,148z M587.5,152.8c-2,0-3.6-1.6-3.6-3.6c0-1.3,0.7-2.5,1.8-3.1l1,3.4
						c0.1,0.5,0.6,0.7,1.1,0.6c0.5-0.1,0.7-0.6,0.6-1.1l-1-3.4c0.1,0,0.1,0,0.2,0c2,0,3.6,1.6,3.6,3.6
						C591.2,151.1,589.5,152.8,587.5,152.8z"/>
				</g>
			</g>
			<g>
				<g>
					<g>
						<path class="st14" d="M412.7,266.7c6.2-8,9.9-18,9.9-28.9c0-26.3-21.3-47.6-47.6-47.6c-26.3,0-47.6,21.3-47.6,47.6
							c0,10.9,3.7,20.9,9.8,28.9l37.7,55.2L412.7,266.7z"/>
						
							<ellipse transform="matrix(1.064000e-03 -1 1 1.064000e-03 136.8333 612.5212)" class="st0" cx="375" cy="237.8" rx="36.7" ry="36.7"/>
					</g>
				</g>
			</g>
		</g>
	</g>
	<g id="Layer_2_2_">
		<g id="objects_1_">
			<circle class="st15" cx="375.8" cy="237.4" r="32.5"/>
			
				<rect x="385.5" y="212.6" transform="matrix(0.7067 -0.7075 0.7075 0.7067 -47.5424 339.7107)" class="st16" width="1" height="29.2"/>
			
				<rect x="382.2" y="216" transform="matrix(0.7071 -0.7071 0.7071 0.7071 -50.9525 338.1005)" class="st16" width="1" height="29.2"/>
			
				<rect x="378.8" y="221.2" transform="matrix(0.7071 -0.7071 0.7071 0.7071 -54.2959 336.7115)" class="st16" width="1" height="25.3"/>
			<rect x="375" y="226.2" transform="matrix(0.7072 -0.707 0.707 0.7072 -57.457 334.7513)" class="st16" width="1" height="21"/>
			
				<rect x="392.2" y="207.9" transform="matrix(0.7069 -0.7074 0.7074 0.7069 -40.8684 342.4072)" class="st16" width="1" height="25.3"/>
			
				<rect x="395.6" y="204.5" transform="matrix(0.7072 -0.707 0.707 0.7072 -37.5924 343.5689)" class="st16" width="1" height="25.3"/>
			
				<rect x="388.9" y="209.3" transform="matrix(0.707 -0.7072 0.7072 0.707 -44.2393 340.9489)" class="st16" width="1" height="29.2"/>
			
				<rect x="366.6" y="226.7" transform="matrix(0.7072 -0.707 0.707 0.7072 -47.6257 339.4096)" class="st16" width="38.9" height="1"/>
			
				<rect x="369.2" y="229.4" transform="matrix(0.7074 -0.7069 0.7069 0.7074 -48.756 342.0089)" class="st16" width="38.9" height="1"/>
			
				<rect x="374.4" y="232.1" transform="matrix(0.7071 -0.7071 0.7071 0.7071 -49.826 344.8447)" class="st16" width="34" height="1"/>
			
				<rect x="363.6" y="221.4" transform="matrix(0.7067 -0.7075 0.7075 0.7067 -45.327 334.3495)" class="st16" width="34" height="1"/>
			
				<rect x="380.6" y="234.3" transform="matrix(0.7071 -0.7071 0.7071 0.7071 -50.4361 347.7256)" class="st16" width="27.8" height="1"/>
			
				<rect x="363.4" y="218.7" transform="matrix(0.7072 -0.707 0.707 0.7072 -44.2967 331.3742)" class="st16" width="29.2" height="1"/>
			
				<rect x="363.9" y="224.1" transform="matrix(0.707 -0.7072 0.7072 0.707 -46.4793 336.8821)" class="st16" width="38.9" height="1"/>
			<path class="st17" d="M398.8,239.1c8.4-8.4,9.7-20.7,2.9-27.5s-19.1-5.5-27.5,2.9c-7.2,7.2-7.4,16.2-8.5,24.1
				c-1.1,7.9-19.3,22.6-19.3,22.6l0,0c-0.8,0.8-0.7,2.1,0,2.8l2.9,2.9c0.8,0.8,2,0.8,2.8,0l0,0c0,0,14.2-18.6,22.1-19.8
				C382,246,391.6,246.2,398.8,239.1z M374.2,239c-5.4-5.4-4.4-15.3,2.3-22c6.7-6.7,16.6-7.7,22-2.3c5.4,5.4,4.4,15.3-2.3,22
				C389.5,243.4,379.7,244.5,374.2,239z"/>
			<path class="st18" d="M398.8,239.1c8.4-8.4,9.7-20.7,2.9-27.5l-3.1,3.1c5.5,5.4,4.4,15.3-2.3,22c-6.7,6.7-16.6,7.7-22,2.3
				l-26.5,26.5l1.4,1.4c0.8,0.8,2,0.8,2.8,0l0,0c0,0,14.2-18.6,22.1-19.8C382,246,391.6,246.2,398.8,239.1z"/>
			<path class="st19" d="M351.7,256.4c-1.4,1.3-2.7,2.4-3.6,3.2l5.4,5.4c0.8-1,1.9-2.3,3.1-3.7L351.7,256.4z"/>
			<path class="st19" d="M359.3,258.4l-4.7-4.7c-0.5,0.5-1,0.9-1.4,1.4l4.8,4.8C358.4,259.4,358.8,258.9,359.3,258.4z"/>
		</g>
	</g>
</g>
<g id="DESIGNED_BY_FREEPIK">
</g>
</svg>
