<?xml version="1.0" encoding="utf-8"?>
<!-- Generator: Adobe Illustrator 22.1.0, SVG Export Plug-In . SVG Version: 6.00 Build 0)  -->
<svg version="1.1" id="Capa_1" xmlns="http://www.w3.org/2000/svg" xmlns:xlink="http://www.w3.org/1999/xlink" x="0px" y="0px"
	 viewBox="0 0 425.2 425.2" style="enable-background:new 0 0 425.2 425.2;" xml:space="preserve">
<style type="text/css">
	.st0{fill:#193545;}
	.st1{clip-path:url(#SVGID_2_);}
	.st2{fill:#FDFBE0;}
	.st3{fill:#DDCB98;stroke:#AD9D72;stroke-width:2.6133;stroke-miterlimit:10;}
	.st4{fill:#A3BB71;}
	.st5{fill:none;stroke:#96AC63;stroke-width:2.3833;stroke-miterlimit:10;}
	.st6{fill:#DDCB98;stroke:#AD9D72;stroke-width:3.1611;stroke-miterlimit:10;}
	.st7{fill:#A3BB71;stroke:#96AC63;stroke-width:2.3833;stroke-miterlimit:10;}
	.st8{fill:#DDCB98;stroke:#AD9D72;stroke-width:2.2742;stroke-miterlimit:10;}
	.st9{fill:#DDCB98;stroke:#AD9D72;stroke-width:2.4996;stroke-miterlimit:10;}
	.st10{fill:#8DC2D9;stroke:#82B6BF;stroke-width:2.3833;stroke-miterlimit:10;}
	.st11{fill:url(#SVGID_3_);}
	.st12{fill:url(#SVGID_4_);}
	.st13{fill:#C2C3C9;}
	.st14{fill:#FFFFFF;}
	.st15{fill:url(#SVGID_5_);}
	.st16{fill:url(#SVGID_6_);}
	.st17{fill:none;stroke:#FFFFFF;stroke-width:2;stroke-miterlimit:10;}
	.st18{fill:#E0BAA0;}
	.st19{fill:#EDEEF0;}
	.st20{fill:#23272B;}
	.st21{fill:#AEADB3;}
	.st22{clip-path:url(#SVGID_8_);}
	.st23{fill:#DDCB98;stroke:#AD9D72;stroke-width:0.9654;stroke-miterlimit:10;}
	.st24{fill:#A3BB71;stroke:#96AC63;stroke-width:0.8805;stroke-miterlimit:10;}
	.st25{fill:#DDCB98;stroke:#AD9D72;stroke-width:1.1678;stroke-miterlimit:10;}
	.st26{fill:#DDCB98;stroke:#AD9D72;stroke-width:0.8401;stroke-miterlimit:10;}
	.st27{fill:#DDCB98;stroke:#AD9D72;stroke-width:0.9234;stroke-miterlimit:10;}
	.st28{fill:#8DC2D9;stroke:#82B6BF;stroke-width:0.8805;stroke-miterlimit:10;}
	.st29{opacity:0.6;fill:#FFFFFF;}
</style>
<rect x="0" y="0" class="st0" width="425.2" height="425.2"/>
<g>
	<defs>
		<rect id="SVGID_1_" x="0" y="207.9" width="425.2" height="217.3"/>
	</defs>
	<clipPath id="SVGID_2_">
		<use xlink:href="#SVGID_1_"  style="overflow:visible;"/>
	</clipPath>
	<g class="st1">
		<g>
			<path class="st2" d="M427.2,207.9c-140.6,0-281.2,0-421.7,0c-69.3,72.4-138.6,144.9-207.9,217.3c276.7,0,553.4,0,830.1,0
				C560.8,352.8,494,280.3,427.2,207.9z"/>
			<g>
				<path class="st3" d="M-36.2,414.7c5.5-4.2,13-10.1,11.8-13.6c-3.1-8.5-22.2-9.8-31.2-11.6c-9.4-1.8-26.2-4-29.8-13.9
					c-1.7-4.9,1.9-11.1,7-16.8c-12.7,0-25.4,0-38,0c-16.9,18.8-33.8,37.7-50.7,56.5c43.4,0,86.8,0,130.2,0
					C-36.7,415.1-36.5,414.9-36.2,414.7z"/>
				<path class="st3" d="M-59.7,376.4c11.2,5.5,25,6.5,37.4,9.2c7.2,1.6,24.1,6.8,20.9,16.9c-1.3,4.3-6.3,8.6-11.5,12.8
					c8.6,0,12.9,0,21.6,0c9.2-18.8,18.4-37.7,27.7-56.5c-31.5,0-63,0-94.5,0C-64,365.3-67.6,372.6-59.7,376.4z"/>
				<path class="st3" d="M204.6,358.8c-0.8,18.8-1.6,37.7-2.3,56.5c-58.6,0-117.2,0-175.9,0c8.4-18.8,16.9-37.7,25.4-56.5
					C102.7,358.8,153.7,358.8,204.6,358.8z"/>
				<path class="st3" d="M253.7,358.8c-10.8,0-21.5,0-32.3,0c0.1,18.8,0.1,37.7,0.2,56.5c12.4,0,24.7,0,37.1,0
					C257.1,396.5,255.4,377.6,253.7,358.8z"/>
				<path class="st3" d="M311.2,358.8c-11.2,0-22.4,0-33.7,0c2.9,18.8,5.8,37.7,8.6,56.5c12.9,0,25.8,0,38.7,0
					C320.3,396.5,315.8,377.6,311.2,358.8z"/>
				<path class="st3" d="M352.3,415.3c15.1,0,30.1,0,45.2,0c-7.7-18.8-15.5-37.7-23.2-56.5c-13.1,0-26.2,0-39.3,0
					C340.8,377.6,346.6,396.5,352.3,415.3z"/>
				<g>
					<path class="st4" d="M456.2,407.8c-12.7-8.4-31.7-11.1-47.3-9.9c3.2,7,4.8,10.5,8,17.5c15,0,30,0,45.1,0
						C461.2,412.7,459.5,410,456.2,407.8z"/>
					<path class="st5" d="M456.2,407.8c-12.7-8.4-31.7-11.1-47.3-9.9c3.2,7,4.8,10.5,8,17.5c15,0,30,0,45.1,0
						C461.2,412.7,459.5,410,456.2,407.8z"/>
				</g>
				<g>
					<path class="st4" d="M443.8,366.1c5.7-1.8,8.9-4.4,10.5-7.3c-21.1,0-42.1,0-63.2,0c2,4.5,3,6.7,5.1,11.1
						C411.9,370.7,428.8,370.7,443.8,366.1z"/>
					<path class="st5" d="M443.8,366.1c5.7-1.8,8.9-4.4,10.5-7.3c-21.1,0-42.1,0-63.2,0c2,4.5,3,6.7,5.1,11.1
						C411.9,370.7,428.8,370.7,443.8,366.1z"/>
				</g>
				<path class="st3" d="M492.1,358.8c-6.2,0-9.4,0-15.6,0c-0.9,6.2-6,11.9-19.1,15.1c-18.6,4.7-38.1,4.8-57.3,4.6
					c2,4.3,2.9,6.4,4.9,10.7c20.8-0.7,43.6,2.1,62.5,10.7c10.6,4.8,15.4,10.1,17.4,15.4c16.1,0,32.1,0,48.2,0
					C519.4,396.5,505.7,377.6,492.1,358.8z"/>
				<path class="st3" d="M553.6,415.3c13,0,26.1,0,39.1,0c-16.3-18.8-32.5-37.7-48.8-56.5c-11.3,0-22.7,0-34,0
					C524.5,377.6,539.1,396.5,553.6,415.3z"/>
				<path class="st6" d="M17.4,267.5c-17.3,0-34.7,0-52,0c-18.5,20.6-37,41.3-55.6,61.9c21.1,0,42.2,0,63.3,0
					C-12.1,308.8,2.7,288.1,17.4,267.5z"/>
				<g>
					<path class="st4" d="M-24.1,291.9c13.3-4.4,31.7-11.2,38.8-24.4c-16.4,0-32.9,0-49.3,0c-9.5,10.6-18.9,21.1-28.4,31.7
						C-49.8,298.2-36.6,296.1-24.1,291.9z"/>
					<path class="st5" d="M-24.1,291.9c13.3-4.4,31.7-11.2,38.8-24.4c-16.4,0-32.9,0-49.3,0c-9.5,10.6-18.9,21.1-28.4,31.7
						C-49.8,298.2-36.6,296.1-24.1,291.9z"/>
				</g>
				<path class="st6" d="M-7,328.7c19.3,0,38.7,0,58,0c10-20.4,20-40.8,30-61.2c-15.9,0-31.8,0-47.8,0C19.9,287.9,6.5,308.3-7,328.7
					z"/>
				<path class="st6" d="M-11.8,336.1c-3.7,5.6-5.5,8.4-9.2,14.1c20.6,0,41.1,0,61.7,0c2.8-5.6,4.1-8.4,6.9-14.1
					C27.7,336.1,7.9,336.1-11.8,336.1z"/>
				<path class="st6" d="M-31,335.2c-21.5,0-42.9,0-64.4,0c-5.4,6-8,9-13.4,14.9c22.4,0,44.7,0,67.1,0
					C-37.4,344.2-35.2,341.2-31,335.2z"/>
				<path class="st6" d="M396.5,322.6c-8.7,0-13.1,0-21.8,0c4.2,9.2,8.4,18.4,12.6,27.6c9.4,0,14.2,0,23.6,0
					C406,341,401.3,331.8,396.5,322.6z"/>
				<path class="st6" d="M432.6,322.6c-7.6,0-11.4,0-19,0c5.2,9.2,10.5,18.4,15.7,27.6c8.2,0,12.3,0,20.6,0
					C444.1,341,438.4,331.8,432.6,322.6z"/>
				<path class="st6" d="M467.8,322.6c-6.5,0-9.7,0-16.2,0c6.3,9.2,12.5,18.4,18.8,27.6c7,0,10.5,0,17.5,0
					C481.2,341,474.5,331.8,467.8,322.6z"/>
				<path class="st6" d="M505.4,350.2c10.4,0,20.8,0,31.2,0c-7.9-9.2-15.9-18.4-23.8-27.6c-9.6,0-19.2,0-28.8,0
					C491.1,331.8,498.2,341,505.4,350.2z"/>
				<path class="st7" d="M371.1,314.7c45,0,89.9,0,134.9,0c-13.6-15.8-27.2-31.5-40.8-47.3c-38.6,0-77.1,0-115.7,0
					C356.7,283.2,363.9,299,371.1,314.7z"/>
				<path class="st8" d="M55.3,234.5c14,0,28,0,42,0c3.3-6.7,4.9-10,8.2-16.7c-13.1,0-26.1,0-39.2,0
					C61.8,224.5,59.6,227.8,55.3,234.5z"/>
				<path class="st8" d="M49.2,243.6c-4.5,6.8-6.7,10.2-11.1,17c15.4,0,30.9,0,46.3,0c3.3-6.8,5-10.2,8.3-17
					C78.2,243.6,63.7,243.6,49.2,243.6z"/>
				<path class="st8" d="M53.1,217.8c-14.4,0-28.7,0-43.1,0c-12.8,14.3-25.6,28.5-38.4,42.8c17,0,34,0,51,0
					C32.8,246.3,42.9,232.1,53.1,217.8z"/>
				<path class="st8" d="M359.1,250.6c-6.9,0-10.3,0-17.2,0c1.8,4,2.7,6,4.5,10c7.1,0,10.7,0,17.9,0
					C362.2,256.6,361.1,254.6,359.1,250.6z"/>
				<path class="st8" d="M399.6,257.3c-2-2.3-4.1-4.5-6.2-6.7c-9.5,0-14.3,0-23.9,0c2.2,4,3.3,6,5.6,10c11,0,16.4,0,27.4,0
					C401.5,259.3,400.3,258.1,399.6,257.3z"/>
				<path class="st8" d="M418,260.6c13.7,0,27.5,0,41.2,0c-3.4-4-5.2-6-8.6-10c-14,0-28,0-42,0C412.1,254,415.7,257.4,418,260.6z"/>
				<path class="st8" d="M350.4,234c-6.5,0-9.7,0-16.1,0c2,4.4,3,6.5,5,10.9c6.7,0,10.1,0,16.8,0C353.8,240.6,352.7,238.4,350.4,234
					z"/>
				<path class="st8" d="M381.8,234c-8.6,0-12.9,0-21.5,0c2.4,4.4,3.7,6.5,6.1,10.9c8.8,0,13.2,0,22,0
					C385.4,241.3,383.1,237.6,381.8,234z"/>
				<path class="st8" d="M398.1,239c1.1,1.9,2.8,3.9,4.8,6c14.3,0,28.6,0,42.8,0c-3.8-4.4-5.6-6.5-9.4-10.9c-13.5,0-27,0-40.5,0
					C396.4,235.6,397.1,237.3,398.1,239z"/>
				<path class="st8" d="M342,217.8c-6,0-9.1,0-15.1,0c1.9,4.2,2.9,6.3,4.8,10.6c6.3,0,9.5,0,15.8,0
					C345.3,224.1,344.2,222,342,217.8z"/>
				<path class="st8" d="M380.4,227.9c-0.2-3.8,0.5-7.2,2-10.1c-10.4,0-20.8,0-31.2,0c2.4,4.2,3.5,6.3,5.9,10.6c9.3,0,14,0,23.4,0
					C380.4,228.2,380.4,228,380.4,227.9z"/>
				<path class="st8" d="M395,228.4c12.1,0,24.3,0,36.4,0c-3.6-4.2-5.5-6.3-9.1-10.6c-8.1,0-12.2,0-20.3,0
					C397.6,220.2,395.2,223.9,395,228.4z"/>
				<path class="st6" d="M69.6,319c-2.5,5.6-3.8,8.4-6.3,14c47.4,0,94.9,0,142.3,0c0.2-5.6,0.3-8.4,0.6-14
					C160.7,319,115.2,319,69.6,319z"/>
				<path class="st7" d="M109.6,281.7c6.5-2.6,11-6.2,14-10c1-1.3,2-2.7,2.8-4.2c-11.2,0-22.4,0-33.7,0c-3.1,6.8-4.6,10.2-7.6,17
					C93.5,284.5,103.4,284.2,109.6,281.7z"/>
				<path class="st6" d="M137.6,274.9c-4.3,5.1-11.6,11.6-21.7,14c-11.2,2.7-22.7,3.6-34.6,4c-2.9,6.4-4.3,9.7-7.2,16.1
					c44.2,0,88.4,0,132.6,0c0.3-7.3,0.5-10.9,0.8-18.2c-14.3-1.5-42-4.1-43.8-23.4c-8.5,0-12.8,0-21.3,0
					C141.2,270,139.6,272.6,137.6,274.9z"/>
				<path class="st7" d="M166.8,309.1c13.3,0,26.6,0,39.8,0c0.3-7.3,0.5-10.9,0.8-18.2c-12.4-0.5-25.6-3.1-35.9-10.4
					C170,290,168.4,299.5,166.8,309.1z"/>
				<path class="st6" d="M60,340.5c-1.7,3.9-2.6,5.8-4.3,9.7c49.8,0,99.6,0,149.3,0c0.2-3.9,0.2-5.8,0.4-9.7
					C156.9,340.5,108.5,340.5,60,340.5z"/>
				<path class="st8" d="M131,232.5c6.7-4.2,8.7-10.3,6.1-14.7c-8.8,0-13.3,0-22.1,0c-3.2,7.2-4.9,10.8-8.1,18
					C114.5,235.9,124.4,236.6,131,232.5z"/>
				<path class="st8" d="M182.6,234.4c-6.5,4.8-16.8,6.3-24.4,10.5c-7.6,4.2-11.2,10.1-13,15.7c7.9,0,11.8,0,19.6,0
					c7.4-16.2,28.4-23.2,44.9-24c0.3-7.5,0.5-11.3,0.8-18.8c-8.2,0-12.3,0-20.5,0C191,223.6,188.8,229.8,182.6,234.4z"/>
				<path class="st8" d="M158.5,235.1c6.4-2.7,16.1-4.8,17.7-10.1c0.6-2.2,1-4.8,0.6-7.2c-10.1,0-15.2,0-25.3,0
					c1.4,6.7-2.6,14.6-11.4,20c-10.8,6.6-24.4,6.9-36.9,6.7c-2.9,6.5-4.3,9.7-7.2,16.2c11.4,0,22.7,0,34.1,0
					C135.1,247.1,146.4,240.1,158.5,235.1z"/>
				<path class="st6" d="M255.5,330.5c7.7-8.2,21.2-11,32.3-12.7c22.6-3.4,45.6-3.3,68.4-3.2c-3.7-9-7.4-18-11.1-27
					c-17.6,0.2-39.3-2.7-54.6,5.4c-10.3,5.4-14,17.9-26.3,21.8c-14,4.5-28.3,5.1-42.9,5.1c0,10.1,0.1,20.1,0.1,30.2
					c10.4,0,20.8,0,31.3,0C251.8,343.6,250.1,336.3,255.5,330.5z"/>
				<g>
					<path class="st4" d="M346.7,291.6c-12.1-0.6-26.6-0.8-37,5.2c-7,4.1-0.4,11-0.5,16.5c0,0.7-0.1,1.5-0.3,2.2
						c15.8-0.8,31.5-1,47.2-0.9C352.4,305.4,350.5,300.8,346.7,291.6z"/>
					<path class="st5" d="M346.7,291.6c-12.1-0.6-26.6-0.8-37,5.2c-7,4.1-0.4,11-0.5,16.5c0,0.7-0.1,1.5-0.3,2.2
						c15.8-0.8,31.5-1,47.2-0.9C352.4,305.4,350.5,300.8,346.7,291.6z"/>
				</g>
				<g>
					<path class="st4" d="M273.2,321.1c0.9-0.8,2.6-1.5,5.2-1.7c19.3-2,10.3-11,10.1-17.9c-0.1-4,2.7-7.8,7.4-10.7
						c-2,0.6-3.9,1.3-5.5,2.2c-10.4,5.8-14,17.9-26.3,21.8c-14,4.5-28.3,5.1-42.9,5.1c0,10.1,0.1,20.1,0.1,30.2
						c10.4,0,20.8,0,31.3,0c-0.9-6.6-2.6-13.5,2.8-19.6C259.1,326.4,265.5,323.3,273.2,321.1z"/>
					<path class="st5" d="M273.2,321.1c0.9-0.8,2.6-1.5,5.2-1.7c19.3-2,10.3-11,10.1-17.9c-0.1-4,2.7-7.8,7.4-10.7
						c-2,0.6-3.9,1.3-5.5,2.2c-10.4,5.8-14,17.9-26.3,21.8c-14,4.5-28.3,5.1-42.9,5.1c0,10.1,0.1,20.1,0.1,30.2
						c10.4,0,20.8,0,31.3,0c-0.9-6.6-2.6-13.5,2.8-19.6C259.1,326.4,265.5,323.3,273.2,321.1z"/>
				</g>
				<path class="st6" d="M301.7,325.1c-9.3,1-24,2.2-28.9,9.8c-2.7,4.1-0.9,10.1,0.1,15.2c32.6,0,65.2,0,97.8,0
					c-3.7-9-7.4-18-11.1-27C340.2,323,320.9,323.1,301.7,325.1z"/>
				<path class="st6" d="M221.2,290.6c0,8.3,0,12.5,0.1,20.8c12.5,0.6,32,0.9,40.2-8.6c7.1-8.3,15.3-17.3,27.3-20
					c17.2-3.9,35.2-3.2,52.8-3.7c-1.9-4.6-2.9-7-4.8-11.6c-24.9,0-49.8,0-74.8,0C259.5,284.6,235,289.5,221.2,290.6z"/>
				<path class="st8" d="M310.1,260.6c9.5,0,14.3,0,23.8,0c-5.9-14.3-11.7-28.5-17.6-42.8c-8.1,0-12.1,0-20.2,0
					C300.9,232.1,305.5,246.3,310.1,260.6z"/>
				<path class="st8" d="M276.4,260.6c9.9,0,14.8,0,24.6,0c-4.2-14.3-8.3-28.5-12.5-42.8c-8.3,0-12.5,0-20.8,0
					C270.6,232.1,273.5,246.3,276.4,260.6z"/>
				<path class="st8" d="M258.9,217.8c-12.7,0-25.3,0-38,0c0,7.6,0,11.4,0.1,19c15,1.5,34.1,8.5,40.1,23.7c1.9,0,2.9,0,4.8,0
					C263.7,246.3,261.3,232.1,258.9,217.8z"/>
				<path class="st9" d="M212.6,244.5c12.3,0,32.7,5.8,34,19.2c1.5,15.2-24.7,19.2-35.1,19.2c-10,0-36.5-4-34-19.2
					C179.7,250.3,200,244.5,212.6,244.5z"/>
				<g>
					<path class="st4" d="M41.5,222.2c-8.5,11.3-17,22.7-25.5,34c-10.3,0-20.6,0-30.9,0c9.8-11.3,19.5-22.7,29.3-34
						C25.3,222.2,30.7,222.2,41.5,222.2z"/>
					<path class="st5" d="M41.5,222.2c-8.5,11.3-17,22.7-25.5,34c-10.3,0-20.6,0-30.9,0c9.8-11.3,19.5-22.7,29.3-34
						C25.3,222.2,30.7,222.2,41.5,222.2z"/>
				</g>
				<path class="st7" d="M-167.2,415.3c43.5,0,87.1,0,130.6,0c20.6-10.6,11.2-19.8-7.7-23.6c-13.2-2.7-26.9-5.9-38.9-12.3
					c-17.3,0-34.5,0-51.8,0C-145.7,391.4-156.5,403.3-167.2,415.3z"/>
				<path class="st10" d="M214.7,252.8c9.2,0,16.8,4.3,17,9.6c0,1,0.1,1.6,0.1,2.6c0.2,5.3-7.6,9.6-17.6,9.6c-2,0-2.9,0-4.9,0
					c-9.9,0-17.5-4.3-17-9.6c0.1-1,0.2-1.6,0.3-2.6c0.5-5.3,8.4-9.6,17.6-9.6C211.9,252.8,212.9,252.8,214.7,252.8z"/>
				<path class="st10" d="M86.2,404.9c12.4-2.2,21.1-17.9,35.4-10.8c6.9,3.4,4.1,6,18.6,6.6c15.3,0.6,14.6-1.9,16.2-6.5
					c0.6-1.7,0.6-4.2,3.1-5.7c3.7-2.1,9.2-2,14.1-3.6c10-3.2,12.6-9,10-13.5c-2.6-4.4-9.3-6.5-19.1-3.1c-9.1,3.1-8.1,8.9-23.7,7.6
					c-10.4-0.9-9.8-5.2-17.1-7.1c-8.9-2.4-19-3.4-28.2-2.9c-5.7,0.3-5.1,1.5-9.5,2.2c-5.4,0.8-11.2,0.1-16.3,0.9
					c-9.3,1.4-13.2,5.9-5.5,8.6c6.2,2.2,24.6,0.8,15.9,5.9c-2,1.2-7.4,1.2-9.8,2.2c-3.9,1.6-4.1,3.2-5.6,5.1c0,0-6.1,6.5,0.2,11.8
					C64.7,402.4,68.5,408,86.2,404.9z"/>
				<g>
					<path class="st10" d="M414.7,276c-7.4,3.1-5.7,9.3-4.7,14.6c1.1,5.5-2.2,10.2-12.9,11.3c-10.7,1.1-21.8-0.2-32.6-1.6
						c0.8,1.8,1.2,2.7,2,4.5c13,1.2,25.8,2.3,38.3,0.9c13.7-1.5,15.6-9.6,13.5-16.5c-1.3-4.5-0.9-9.3,7.5-10.5
						c3.8-0.6,8.7,0,13.7,1.2c-2.9,0.6-5.1,1.7-5,3.4c0.1,1.2,0.9,2.5,1.9,3.8c1.7,2.2,2.5,2.9-2.8,2.8c-1.8-0.1-3.4,0.8-3,1.6
						c4.7,12,32.8,14.2,41.4,6.5c4-3.5-1.3-9.2-9.4-13.6c-1.6-1.4-4.3-2.6-7.4-3.5c-4.8-2-10-3.7-14.6-4.8
						C430.6,273.8,420.9,273.4,414.7,276z"/>
				</g>
			</g>
		</g>
	</g>
</g>
<g>
	
		<radialGradient id="SVGID_3_" cx="138.4678" cy="3051.031" r="123.7618" gradientTransform="matrix(1 0 0 0.3069 0 -594.0049)" gradientUnits="userSpaceOnUse">
		<stop  offset="0" style="stop-color:#000000"/>
		<stop  offset="1" style="stop-color:#FFFFFF"/>
	</radialGradient>
	<path class="st11" d="M262.2,342.4c0,21-55.4,38-123.8,38s-123.8-17-123.8-38c0-21,55.4-38,123.8-38S262.2,321.4,262.2,342.4z"/>
	<g>
		<linearGradient id="SVGID_4_" gradientUnits="userSpaceOnUse" x1="44.9868" y1="214.5573" x2="224.9476" y2="214.5573">
			<stop  offset="0" style="stop-color:#BD003F"/>
			<stop  offset="1" style="stop-color:#4F0016"/>
		</linearGradient>
		<path class="st12" d="M214.2,219.4L214.2,219.4c7-13,10.9-28,10.7-43.8c-0.7-49.7-41.5-89.4-91.2-88.8
			C84.1,87.4,44.3,128.3,45,178c0.2,15.9,4.5,30.7,11.9,43.5h0l0.1,0.2c1.9,3.3,4,6.5,6.3,9.5l73.9,111.2L208,229.2
			c2.2-3.1,4.2-6.3,6.1-9.7L214.2,219.4z"/>
		<path class="st13" d="M115.3,204c-6.8-33.2-5.1-78.6,20-104.5c4.2-4.3,8.7-8.1,13.6-11.6c-4.9-0.8-10-1.2-15.2-1.1
			C84.1,87.4,44.3,128.3,45,178c0.2,15.9,4.5,30.7,11.9,43.5h0l0.1,0.2c1.9,3.3,4,6.5,6.3,9.5l73.9,111.2l38.8-62
			C142.8,274.2,121.5,234,115.3,204z"/>
		<path class="st14" d="M201.6,173.9c0.5,36.8-28.9,67-65.7,67.5c-36.8,0.5-67-28.9-67.5-65.7c-0.5-36.8,28.9-67,65.7-67.5
			C170.8,107.7,201.1,137.2,201.6,173.9z"/>
		<linearGradient id="SVGID_5_" gradientUnits="userSpaceOnUse" x1="78.6706" y1="174.8286" x2="191.2639" y2="174.8286">
			<stop  offset="0" style="stop-color:#BD003F"/>
			<stop  offset="1" style="stop-color:#4F0016"/>
		</linearGradient>
		<path class="st15" d="M191.3,174.1c0.4,31.1-24.4,56.6-55.5,57c-31.1,0.4-56.6-24.4-57.1-55.5c-0.4-31.1,24.4-56.6,55.5-57
			C165.3,118.1,190.8,143,191.3,174.1z"/>
		<linearGradient id="SVGID_6_" gradientUnits="userSpaceOnUse" x1="83.8215" y1="174.8286" x2="186.1131" y2="174.8286">
			<stop  offset="0" style="stop-color:#4F0016"/>
			<stop  offset="1" style="stop-color:#BD003F"/>
		</linearGradient>
		<path class="st16" d="M186.1,174.1c0.4,28.2-22.2,51.4-50.5,51.8c-28.2,0.4-51.4-22.2-51.8-50.4c-0.4-28.2,22.2-51.4,50.5-51.8
			C162.5,123.3,185.7,145.9,186.1,174.1z"/>
	</g>
	<g>
		<rect x="105.3" y="165.6" class="st17" width="59.3" height="41.2"/>
		<g>
			<rect x="134.7" y="181.8" class="st17" width="24.8" height="25"/>
			<line class="st17" x1="147.1" y1="181.8" x2="147.1" y2="206.8"/>
			<path class="st14" d="M151.3,193.7c0,0.6-0.5,1.1-1.1,1.1c-0.6,0-1.1-0.5-1.1-1.1s0.5-1.1,1.1-1.1
				C150.8,192.5,151.3,193.1,151.3,193.7z"/>
			<path class="st14" d="M145.5,193.7c0,0.6-0.5,1.1-1.1,1.1c-0.6,0-1.1-0.5-1.1-1.1s0.5-1.1,1.1-1.1
				C145,192.5,145.5,193.1,145.5,193.7z"/>
		</g>
		<g>
			<rect x="108.9" y="180.7" class="st17" width="21.7" height="18"/>
			<line class="st17" x1="130.7" y1="189.7" x2="108.9" y2="189.7"/>
			<line class="st17" x1="119.8" y1="180.7" x2="119.8" y2="198.7"/>
		</g>
		<polygon class="st17" points="98.5,165.6 171.4,165.6 135.1,133.9 		"/>
	</g>
</g>
<g>
	<path class="st18" d="M203.1,186.7l-43.9-67.2c0,0-7.6-14.2,3.3-20.4c0,0,9.3-8.8,23.1,9.2l41.9,57.6c0,0,13.1,15.8,0.2,24.6
		C227.7,190.6,213.1,204.7,203.1,186.7z"/>
	<path class="st18" d="M204,299.3c0,0,22.6,43.4,62.5,46.9l25.1,79.1h103.9L363.2,326c-7.4-23.7-2.5-34.2-2.5-34.2
		c3.3-13,10.1-25,10.2-38.7c0.2-19.5-8-38.3-12.4-57c-2.7-11.4-4.6-22.9-9.4-33.6c-2.4-5.5-6.8-10.2-8.4-16
		c-1.8-6.2-2.6-12.8-5.6-18.6c-0.6-1.1-0.8-2.7-1.2-3.9c-1.4-4.6-6-9.8-11.2-8c0,0-17.8,1.3-12.2,31.3c0,0,9.4,41.8,11.1,47.1
		c1.7,5.3-93,54.7-93,54.7l-24.4-1.7c0,0-22.4,7-11.2,29.5C204,299.3,204,299.3,204,299.3z"/>
	<path class="st19" d="M330.7,167.7c0.2,0,0.7-0.1,1.7-0.1c1,0,1.9,0,2.9-0.1c2.8-0.4,5.6-1,8.3-1.9c2-0.6,4-1.3,6-1.9
		c-0.2-0.4-0.3-0.7-0.5-1.1c-0.3-0.7-0.7-1.5-1.1-2.2C345.4,165.9,336.4,166.8,330.7,167.7z"/>
	<path class="st19" d="M353.6,175.6c-0.1-0.4-0.2-0.8-0.3-1.3c-2.4,1.3-5.2,2.4-8.1,3.3C348,177.1,350.9,176.5,353.6,175.6z"/>
	<path class="st19" d="M342.2,185.3c2.5,0.3,7.8-1.4,12.3-3.1c0-0.3-0.1-0.6-0.1-0.8C350.6,183,346.2,184.1,342.2,185.3z"/>
	<path class="st18" d="M395.6,425.2L363.2,326c-2.4-7.6-3.5-13.8-3.9-18.8c-1.7,1.4-3.4,2.8-5.2,4.1c-3.7,2.7-7.6,5.3-11.6,7.6
		c-4.1,2.4-8.7,3.8-13,5.6c-4.7,1.9-8.9,4.5-12.6,8.1c-3.4,3.4-6.2,7.3-9.5,10.9c-4.7,5.1-10,9.5-13.8,15.3
		c-4.2,6.5,3.5,39.1,11,66.4H395.6z"/>
	<path class="st19" d="M318.7,118.6c-4.6,14.5-0.7,30,3.8,44c4.1,12.8,8.3,25.2,9.7,38.7c1.3,12.3,1.3,25.9-4,37.4
		c-4,8.7-10.5,14.5-18.7,17.8c1.1-3.9,1.2-8.1,1.1-12.1c-0.3-8.2-1.7-16.4-3.8-24.3c-1.1-4.1-2.3-8.2-3.7-12.2
		c11.1-6.7,18.8-12,18.3-13.5c-1.7-5.2-11.1-47.1-11.1-47.1c-4.1-21.7,4.1-28.4,9-30.4C319.1,117.4,318.9,118,318.7,118.6z"/>
	<path class="st19" d="M204,299.3c0,0,22.6,43.4,62.5,46.9l25.1,79.1h11.7c-6.7-23.6-15.4-55.1-14.9-58.6
		c2.1-12.3,14.6-20.6,22-29.5c2.6-3.1,5.2-6.1,8.4-8.7c3.6-2.9,7.9-4.8,12.2-6.5c4.6-1.8,9-3.6,13.3-6.3c4.3-2.7,8.5-5.5,12.4-8.7
		c0.8-0.6,1.6-1.3,2.3-1.9c-0.4-9,1.5-13.2,1.5-13.2c1.5-6,3.2-10.6,4.7-14.6c-3.2,5.2-6.8,10.1-11,14.5
		c-6.4,6.6-13.9,10.6-22.5,13.8c-4.6,1.7-9.2,3.4-13.4,5.9c-3.7,2.2-6.5,5.6-9,9.1c-4.5,6.2-8.5,12-15.5,15.7
		c-7.2,3.7-18.6,1.3-26.5,0.6c-7.8-0.7-13.1-0.1-19.7-3.9c-12.9-7.4-25.6-18.3-32.1-31.9c-2.2-4.5-4.9-12-2.6-17
		c1.9-4.2,6.5-4,10.4-2.9c1.1,0.3,0.7,2.1-0.4,1.8c-0.8-0.2-1.6-0.5-2.4-0.6c0.2,0.4,0.4,0.8,0.6,1.2c14.9,1.6,30.5-4.2,44.5-8.3
		c6.9-2,13.9-3.7,20.9-5.2c5.6-1.1,11.5-2.3,16.2-5.7c1.7-1.3,3-2.9,3.9-4.7c-2.9,0.8-5.9,1.4-9,1.7c-1.2,0.1-1.2-1.7-0.1-1.8
		c3.5-0.4,6.8-1.1,10-2.1c1-3.1,1.4-6.5,1.4-9.7c0.2-8.7-1.4-17.4-3.4-25.8c-1.1-4.3-2.3-8.6-3.8-12.9
		c-27.3,16.3-73.2,40.3-73.2,40.3l-24.4-1.7c0,0-22.4,7-11.2,29.5C204,299.3,204,299.3,204,299.3z"/>
	<g>
		<path d="M328.8,294.5c0.6,6.4-4.1,12.1-10.5,12.7l-104.1,9.9c-6.4,0.6-12.1-4.1-12.7-10.5l-17.9-189.3
			c-0.6-6.4,4.1-12.1,10.5-12.7l104.1-9.9c6.4-0.6,12.1,4.1,12.7,10.5L328.8,294.5z"/>
		<path class="st20" d="M326.1,295.3c0.6,6.1-3.9,11.6-10.1,12.2l-99.8,9.5c-6.1,0.6-11.6-3.9-12.2-10.1l-17.7-187.1
			c-0.6-6.2,3.9-11.6,10.1-12.2l99.8-9.5c6.2-0.6,11.6,3.9,12.2,10.1L326.1,295.3z"/>
		
			<rect x="203.6" y="114.1" transform="matrix(0.9955 -9.435783e-02 9.435783e-02 0.9955 -17.8855 25.0266)" class="st14" width="104.1" height="175.1"/>
		<g>
			<path class="st14" d="M277.6,297.9c0.3,3.7-2.3,6.9-6,7.3l-12.1,1.1c-3.7,0.3-6.9-2.3-7.3-6l0,0c-0.3-3.7,2.3-6.9,6-7.3l12.1-1.1
				C274,291.5,277.3,294.2,277.6,297.9L277.6,297.9z"/>
			<path class="st21" d="M252.2,300.2C252.2,300.2,252.2,300.3,252.2,300.2c0.4,3.7,3.6,6.4,7.3,6.1l12.1-1.1c3.7-0.3,6.4-3.6,6-7.3
				c0,0,0-0.1,0-0.1L252.2,300.2z"/>
		</g>
		<g>
			<defs>
				
					<rect id="SVGID_7_" x="203.6" y="114.1" transform="matrix(0.9955 -9.435783e-02 9.435783e-02 0.9955 -17.8855 25.0266)" width="104.1" height="175.1"/>
			</defs>
			<clipPath id="SVGID_8_">
				<use xlink:href="#SVGID_7_"  style="overflow:visible;"/>
			</clipPath>
			<g class="st22">
				
					<rect x="43.9" y="93" transform="matrix(0.9955 -9.434895e-02 9.434895e-02 0.9955 -18.2681 18.9748)" class="st2" width="295.2" height="219.3"/>
				<g>
					<path class="st23" d="M110.6,309.9c0.7-4.3,1.8-9.6,0.1-13.8c-2.6-6.6-9.6-8.2-15.7-10.2c-7.1-2.4-13.3-5.6-17-12.5
						c-2.8-5.3-3.8-10.9-4.2-16.7l-15.8,1.5l5.4,56.8l47.2-4.5C110.5,310.3,110.5,310.1,110.6,309.9z"/>
					<path class="st23" d="M88.5,273.1c5.2,4.1,12,5,18,7.6c6.8,3.1,12,8.2,13.2,15.9c0.7,4.4,0.2,8.7-0.5,13l7.8-0.7l-5.4-56.8
						l-39.4,3.7C82.5,262.4,83.7,269.3,88.5,273.1z"/>
					
						<rect x="130.6" y="248.4" transform="matrix(0.9955 -9.433980e-02 9.433980e-02 0.9955 -25.3964 16.5742)" class="st23" width="64" height="57"/>
					
						<rect x="201.4" y="244.1" transform="matrix(0.9955 -9.445433e-02 9.445433e-02 0.9955 -24.8145 20.8817)" class="st23" width="13.5" height="57"/>
					
						<rect x="224.8" y="241.8" transform="matrix(0.9955 -9.427744e-02 9.427744e-02 0.9955 -24.453 23.0617)" class="st23" width="14.1" height="57"/>
					
						<rect x="248.8" y="239.4" transform="matrix(0.9955 -9.431227e-02 9.431227e-02 0.9955 -24.125 25.4297)" class="st23" width="16.4" height="57"/>
					<path class="st24" d="M289.9,285.8c-2.3-5.6-10.5-10.7-16.7-8.5l1.7,17.6l16.3-1.5C291.2,290.7,290.9,288.2,289.9,285.8z"/>
					<path class="st24" d="M290.4,243.5c2.6-2.1,4.3-4.9,5.5-7.9l-26.3,2.5l1.1,11.2C277.8,249.5,285.5,247.5,290.4,243.5z"/>
					<path class="st23" d="M311.5,234.1l-6.5,0.6c-1.6,6.4-4.6,12.4-10.3,16.3c-6.3,4.4-14.9,6.8-23.3,6.9l1,10.8
						c8.2-1.6,18,2.1,22.7,8.7c3.4,4.7,4.4,9.9,4.4,15.1l17.4-1.7L311.5,234.1z"/>
					
						<rect x="321.7" y="232.6" transform="matrix(0.9955 -9.447389e-02 9.447389e-02 0.9955 -23.2002 32.2286)" class="st23" width="14.2" height="57"/>
					
						<rect x="52.1" y="164.9" transform="matrix(0.9955 -9.436000e-02 9.436000e-02 0.9955 -18.2149 7.1509)" class="st25" width="28.8" height="62.5"/>
					<path class="st24" d="M68,189.4c5.7-6.3,10.8-16.9,8.4-25.5l-27.2,2.6l3,31.8C58.4,196.7,64.2,193.6,68,189.4z"/>
					
						<rect x="89.5" y="161.5" transform="matrix(0.9955 -9.434192e-02 9.434192e-02 0.9955 -17.6918 10.5472)" class="st25" width="26.4" height="61.8"/>
					
						<rect x="93.8" y="230.6" transform="matrix(0.9955 -9.436805e-02 9.436805e-02 0.9955 -21.9483 11.1571)" class="st25" width="26.4" height="14.2"/>
					
						<rect x="56.3" y="233.1" transform="matrix(0.9955 -9.436000e-02 9.436000e-02 0.9955 -22.3909 7.7468)" class="st25" width="28.8" height="15.1"/>
					
						<rect x="267.3" y="201.2" transform="matrix(0.9956 -9.407243e-02 9.407243e-02 0.9956 -19.0283 26.5773)" class="st25" width="10.1" height="27.8"/>
					
						<rect x="285.3" y="199.6" transform="matrix(0.9955 -9.439952e-02 9.439952e-02 0.9955 -18.858 28.2999)" class="st25" width="8.8" height="27.8"/>
					
						<rect x="302.8" y="198" transform="matrix(0.9956 -9.422073e-02 9.422073e-02 0.9956 -18.599 29.8272)" class="st25" width="7.5" height="27.8"/>
					
						<rect x="317.7" y="196.3" transform="matrix(0.9956 -9.412624e-02 9.412624e-02 0.9956 -18.3436 31.4665)" class="st25" width="13.4" height="27.8"/>
					
						<rect x="262.9" y="143.2" transform="matrix(0.9955 -9.436107e-02 9.436107e-02 0.9955 -14.4515 28.5705)" class="st24" width="64" height="47.7"/>
					
						<rect x="82.8" y="111.7" transform="matrix(0.9955 -9.436261e-02 9.436261e-02 0.9955 -10.9033 9.5875)" class="st26" width="26.3" height="16.8"/>
					
						<rect x="85.3" y="137.6" transform="matrix(0.9955 -9.438746e-02 9.438746e-02 0.9955 -13.3584 9.9402)" class="st26" width="26.3" height="17.1"/>
					
						<rect x="46.5" y="115" transform="matrix(0.9955 -9.428164e-02 9.428164e-02 0.9955 -12.611 6.354)" class="st26" width="28.9" height="43.2"/>
					
						<rect x="259.6" y="128.9" transform="matrix(0.9955 -9.454198e-02 9.454198e-02 0.9955 -11.4793 25.6241)" class="st26" width="10.1" height="10.1"/>
					<path class="st26" d="M291.1,133.2c-0.5-2.2-1.1-4.4-1.7-6.7l-14,1.3l1,10l15.5-1.5C291.6,135.2,291.2,133.9,291.1,133.2z"/>
					<path class="st26" d="M300.6,135.6l23.3-2.2l-1-10l-24.6,2.3C299.2,129,300.2,132.4,300.6,135.6z"/>
					
						<rect x="258.1" y="112.3" transform="matrix(0.9955 -9.435546e-02 9.435546e-02 0.9955 -9.9385 25.3553)" class="st26" width="10.1" height="11"/>
					<path class="st26" d="M287.3,110l-13.4,1.3l1,11l13.1-1.2C287.3,117.3,287,113.6,287.3,110z"/>
					<path class="st26" d="M295.8,114.1c0.1,1.9,0.4,3.9,0.9,6l25.6-2.4l-1-11l-25.3,2.4C295.8,110.8,295.7,112.4,295.8,114.1z"/>
					
						<rect x="256.5" y="96" transform="matrix(0.9956 -9.405246e-02 9.405246e-02 0.9956 -8.3666 25.0522)" class="st26" width="10.1" height="10.7"/>
					<path class="st26" d="M288.3,103.6c1.1-4,2.7-7.5,4.8-10.7l-20.8,2l1,10.6l14.9-1.4C288.2,104,288.3,103.8,288.3,103.6z"/>
					<path class="st26" d="M297.5,103.2l23.3-2.2l-1-10.6l-13.5,1.3C302.2,94.6,299.2,98.5,297.5,103.2z"/>
					
						<rect x="124.8" y="208.4" transform="matrix(0.9955 -9.442416e-02 9.442416e-02 0.9955 -19.6464 15.7663)" class="st25" width="64" height="14.1"/>
					<path class="st24" d="M132.9,172.9c2.7-2.9,4.1-6.7,4.6-10.6c0.2-1.3,0.3-2.8,0.4-4.3l-18.5,1.8l1.6,17.1
						C125.4,176.5,130.4,175.7,132.9,172.9z"/>
					<path class="st25" d="M145.9,164.8c-1.1,5.2-3.2,11.6-7.7,14.9c-4.8,3.6-10.6,4.9-16.4,5.6l1.5,16.2l63.7-6l-1.7-18.3
						c-12.8,0.1-24-8.8-26.9-21.1l-11.7,1.1C146.7,159.8,146.4,162.4,145.9,164.8z"/>
					<path class="st24" d="M167.9,197.3l19.1-1.8l-1.7-18.3c-7.8,0.1-15-3.2-20.1-8.6L167.9,197.3z"/>
					
						<rect x="126.6" y="230.1" transform="matrix(0.9955 -9.430270e-02 9.430270e-02 0.9955 -21.4504 16.0055)" class="st25" width="64" height="9.8"/>
					<path class="st26" d="M130.2,123.3c2.9-4.5,2.3-10.6-0.8-14.8l-14.7,1.4l1.7,18.1C121.1,127.6,127.4,127.7,130.2,123.3z"/>
					<path class="st26" d="M163,122.1c-3.2,5.2-9.1,7.2-12.7,11.9c-3.5,4.6-4.1,10.6-3.7,16.2l11.1-1c0.2-13,9.6-24.1,22.5-26.5
						l-1.8-18.9l-13.7,1.3C166.4,110.8,166,117.2,163,122.1z"/>
					<path class="st26" d="M148.1,124.2c3.6-2.8,9-5.8,8.9-11.1c0-2.2-0.4-4.8-1.2-7.1l-16.9,1.6c2.8,6.5,2.3,14.4-1.5,20.4
						c-4.5,7.1-12.5,7.9-20.2,8.7l1.5,16.2l19.2-1.8C137.3,140.8,139.7,130.8,148.1,124.2z"/>
					<path class="st25" d="M211.5,215c2.3-6.8,8.1-11.4,14.5-14.2c10.2-4.5,21.3-5.5,32.3-6.3l-2.6-27.1c-9.2,1.3-21.8,0.8-28.2,8.1
						c-6.1,7-5.2,17-12.7,23.3c-5.5,4.6-12.6,6.9-19.8,7.1l2.9,30.3l13.3-1.3C210.5,228.3,209.3,221.4,211.5,215z"/>
					<path class="st24" d="M256.1,171.3c-7.4,0.1-15.1,1.9-19,7.1c-3.8,4.9-0.7,11.2-0.9,16.8c0,0.8-0.1,1.5-0.2,2.2
						c7.3-1.8,14.8-2.4,22.3-3L256.1,171.3z"/>
					<path class="st24" d="M219.2,204.6c0.4-0.9,1.2-1.6,2.4-2c8.9-2.9,4.8-11.6,4.8-18.6c0-4.1,1.4-8,3.9-11.2
						c-1,0.7-2,1.5-2.9,2.5c-6.1,7-5.2,17-12.7,23.3c-5.5,4.6-12.6,6.9-19.8,7.1l2.9,30.3l13.3-1.3c-0.8-6.6-1.9-13.5,0.2-19.9
						C212.9,210.7,215.7,207.3,219.2,204.6z"/>
					<path class="st25" d="M232.4,207.5c-5.2,2-11.8,5.1-13,11.2c-1,5.1-0.1,10.3,0.5,15.4l41.7-4l-2.6-27.1
						C250,203.6,240.8,204.3,232.4,207.5z"/>
					<path class="st25" d="M192.3,176.3l2,20.9c7.6,0,16.3-3,18.9-10.5c3.1-8.7,5.1-16.6,13.7-21.6c8.5-4.9,18.6-4.9,28-6.4
						l-1.1-11.6l-41.2,3.9C212.1,162.9,203.8,173.2,192.3,176.3z"/>
					
						<rect x="237.6" y="97.7" transform="matrix(0.9955 -9.444626e-02 9.444626e-02 0.9955 -10.171 23.6104)" class="st26" width="13.5" height="43.2"/>
					
						<rect x="218.5" y="99.4" transform="matrix(0.9955 -9.442035e-02 9.442035e-02 0.9955 -10.4208 21.8359)" class="st26" width="14" height="43.2"/>
					<path class="st26" d="M210.7,100.8l-25.3,2.4l1.8,19.1c12.1,0.9,22.3,9.7,24.9,21.7l2.7-0.3L210.7,100.8z"/>
					<path class="st27" d="M182.8,130.5c10.6-1,20.1,6.8,21.1,17.5c1,10.6-6.8,20.1-17.5,21.1c-10.7,1-20.1-6.8-21.1-17.5
						C164.4,140.9,172.2,131.5,182.8,130.5z"/>
					
						<rect x="52" y="119.5" transform="matrix(0.9955 -9.435723e-02 9.435723e-02 0.9955 -12.6206 6.3595)" class="st24" width="17.8" height="34.3"/>
					<path class="st24" d="M63.3,314.9l47.3-4.5c0,0,7.2-19.1-10.6-22.9c0,0-12.5-4.5-19.7-10.6l-20.5,1.9L63.3,314.9z"/>
					<path class="st28" d="M184.9,138.7c5.3-0.5,10.1,3.4,10.6,8.7l0.2,2.6c0.5,5.3-3.4,10-8.7,10.6l-2.6,0.3
						c-5.3,0.5-10.1-3.4-10.6-8.7l-0.2-2.6c-0.5-5.3,3.4-10.1,8.7-10.6L184.9,138.7z"/>
					<path class="st28" d="M152.9,295.9c4.5-2.2,3.1-19.4,11.1-12c3.3,3.1,2.6,5.8,8.2,5.9c5.8,0.1,5.2-2.4,5.1-7.1
						c0-1.7-0.4-4.3,0.3-5.8c1.1-2.2,3.2-2.3,4.9-4.1c3.4-3.6,3.8-9.4,2.1-13.8c-1.6-4.3-4.7-6.1-8.2-2.4c-3.2,3.4-1.9,9.2-8.3,8.4
						c-4.3-0.5-4.8-4.6-8.2-6.5c-2.6-1.4-9.3-2.6-12.1-1.8c-2.3,0.6-1.7,1.7-3.4,2.5c-2,1-4.5,0.5-6.4,1.5c-3.4,1.7-3.8,6.4,0,8.7
						c3,1.9,9.9-0.1,7.7,5.3c-0.5,1.2-2.6,1.4-3.3,2.5c-1.1,1.8-0.8,3.3-0.9,5.3c0,0-0.7,6.7,2.9,11.7
						C144.3,294.2,146.6,299.1,152.9,295.9z"/>
					<g>
						<g>
							<path class="st28" d="M294.3,151.9c-4.8,3.6-5.3,9.9-5.9,15.3c-0.7,5.6-3.1,10.4-8.7,12.2c-4.9,1.6-10.7,0.7-15.8-0.1
								l0.4,4.5c6.1,0.8,12.6,1.4,18.5-0.8c7.3-2.8,9.6-10.7,10.2-17.7c0.4-4.6,1.8-9.6,6.6-11.3c2.1-0.8,4.6-0.4,6.9,0.6
								c-1.7,0.7-3.2,2-3.6,3.8c-0.3,1.3-0.2,2.6-0.1,3.9c0.3,2.2,0.5,2.9-2.2,3c-0.9,0-1.9,0.9-2,1.8c-1,11.3,13.3,12.7,19,4.8
								c3.2-4.5,2.2-9.5-0.5-13.7c-0.4-1.4-1.4-2.5-2.7-3.3c-1.9-1.9-4.1-3.4-6.2-4.3C303.5,148.7,298.4,148.8,294.3,151.9z"/>
						</g>
					</g>
				</g>
			</g>
		</g>
		<path class="st29" d="M323.8,303.3c-1.8,2.3-4.5,3.9-7.7,4.2l-99.8,9.5c-6.1,0.6-11.6-3.9-12.2-10.1l-17.7-187.1
			c-0.3-3.4,0.9-6.5,3-8.8L323.8,303.3z"/>
	</g>
	<path class="st13" d="M193.9,236.9l39.1,28.9c0,0,11.9,5,4.8,17.8c0,0-5.2,11.4-23.2-1.9l-33-18.9c0,0-16.5-8.1-9.3-20
		C172.4,242.8,179,225.9,193.9,236.9z"/>
	<path class="st18" d="M192.2,233.2l39.1,28.9c0,0,11.9,5,4.8,17.8c0,0-5.2,11.4-23.2-1.9l-33-18.9c0,0-16.5-8.1-9.3-20
		C170.7,239.2,177.3,222.3,192.2,233.2z"/>
	<path class="st13" d="M187.9,197.7l44.1,32.5c0,0,13.5,5.6,5.4,20.1c0,0-5.9,12.9-26.1-2.2l-37.2-21.3c0,0-18.6-9.1-10.4-22.5
		C163.7,204.4,171.2,185.3,187.9,197.7z"/>
	<path class="st18" d="M186.2,194l44.1,32.5c0,0,13.5,5.6,5.4,20.1c0,0-5.9,12.9-26.1-2.2l-37.2-21.3c0,0-18.6-9.1-10.4-22.5
		C161.9,200.6,169.4,181.6,186.2,194z"/>
	<path class="st13" d="M173.8,159.5l30.3,24.3c0,0,13.5,5.6,5.4,20.1c0,0-5.9,12.9-26.1-2.2l-23.3-13c0,0-18.6-9.1-10.4-22.5
		C149.5,166.2,157,147.1,173.8,159.5z"/>
	<path class="st18" d="M172,155.6l30.3,24.3c0,0,13.5,5.6,5.4,20.1c0,0-5.9,12.9-26.1-2.2l-23.3-13c0,0-18.6-9.1-10.4-22.5
		C147.7,162.3,155.2,143.2,172,155.6z"/>
</g>
</svg>
