<?xml version="1.0" encoding="utf-8"?>
<!-- Generator: Adobe Illustrator 22.1.0, SVG Export Plug-In . SVG Version: 6.00 Build 0)  -->
<svg version="1.1" id="Layer_1" xmlns="http://www.w3.org/2000/svg" xmlns:xlink="http://www.w3.org/1999/xlink" x="0px" y="0px"
	 viewBox="0 0 407.6 407.6" style="enable-background:new 0 0 407.6 407.6;" xml:space="preserve">
<style type="text/css">
	.st0{fill:#FEC514;}
	.st1{fill:#FEFEFE;}
	.st2{fill:#80552A;}
</style>
<title>coffee</title>
<g id="Layer_2_1_">
	<g id="Layer_1-2">
		<path class="st0" d="M407.6,203.8c0,112.6-91.3,203.8-203.8,203.8S0,316.4,0,203.8S91.3,0,203.8,0S407.6,91.3,407.6,203.8z"/>
		<path class="st1" d="M321.3,255.1c-1.8-17.2-15.7-24.4-27.2-26.7c1.8-14.3,2.3-24.1,2.3-24.1c0-19.3-41.8-34.9-93.4-34.9
			s-93.4,15.6-93.4,34.9c0,59.4,24.2,103.4,24.2,103.4c5.8,14.1,31,25.8,69.2,25.8s63.4-12.1,69.2-25.8c2.1-4,4-8.2,5.8-12.5
			c17.5-2.2,29.5-7.4,36.6-15.8C319.9,272.8,322.2,264.6,321.3,255.1z M300.5,267.6c-2.2,2.6-6.8,5.7-16,7.8
			c2.7-9.6,5-19.3,6.7-29.1c5,1.1,11.2,3.7,11.9,10.5C303.8,263,302,265.9,300.5,267.6z"/>
		<path class="st2" d="M202.9,233.1c-50,0-87.4-15.2-87.4-28.8s37.4-28.8,87.4-28.8s87.4,15.2,87.4,28.8S252.9,233.1,202.9,233.1z"
			/>
		<path class="st1" d="M188.9,201.1c0,0,0.4-0.7,0.9-1.8s1.4-2.9,2.5-5.1s2.1-4.9,3.4-8s2.2-6.7,3.2-10.5c1-4.1,1.7-8.2,2.1-12.4
			c0.2-2.2,0.3-4.5,0.3-6.7c0-2.3-0.1-4.6-0.4-6.9c-0.1-1.1-0.3-2.3-0.4-3.5s-0.5-2.3-0.7-3.5l-0.8-3.5c-0.3-1.2-0.8-2.3-1.1-3.5
			c-0.7-2.4-1.6-4.7-2.6-7c-1.1-2.3-1.9-4.5-3.3-7.2c-2.5-5.1-5.1-10.6-7.3-16.1c-2.3-5.5-4-11.2-5.3-17.1
			c-1.3-5.6-1.8-11.4-1.6-17.2c0.2-5.1,1-10.2,2.4-15.2c1.1-4.1,2.6-8,4.5-11.8c1.4-3.4,3.4-6,4.7-8.3c1.4-2.2,2.7-3.8,3.5-4.9
			l1.3-1.7c0.7-0.9,2-1.1,3-0.4c0.6,0.5,0.9,1.3,0.8,2.1v0.1c0,0-0.7,2.8-2,7.6c-0.5,2.4-1.3,5.3-1.8,8.6c-0.7,3.6-1.1,7.2-1.3,10.9
			c-0.2,4.1,0,8.3,0.5,12.4c0.6,4.5,1.7,9,3.2,13.3c1.6,4.8,3.6,9.5,5.8,14.1c2.3,4.9,4.7,9.7,7.3,14.9c1.3,2.4,2.5,5.5,3.8,8.4
			c0.6,1.5,1.3,2.9,1.8,4.4l1.3,4.6c0.4,1.6,0.9,3.1,1.2,4.6s0.5,3.1,0.7,4.7c0.5,3.1,0.7,6.1,0.6,9.2c0,5.8-0.7,11.6-2.1,17.3
			c-0.7,2.6-1.5,5.1-2.4,7.6c-0.9,2.4-2,4.6-3,6.7s-2.3,4-3.3,5.8c-1.2,1.7-2.4,3.4-3.4,4.9c-1.9,2.6-4,5-6.3,7.3
			c-1.5,1.5-3,2.8-4.6,4.1c-0.6,0.5-1.2,0.9-1.8,1.3l0,0c-1,0.6-2.3,0.4-2.9-0.6C188.5,202.6,188.5,201.8,188.9,201.1L188.9,201.1z"
			/>
		<path class="st1" d="M147.9,201.9c0,0,0.3-0.5,0.7-1.3s1.1-2.2,1.9-3.8s1.6-3.7,2.5-6s1.7-5,2.4-7.9c0.8-3.1,1.3-6.2,1.6-9.4
			c0.2-1.7,0.2-3.3,0.2-5c0-1.7-0.1-3.5-0.3-5.2c-0.1-0.9-0.2-1.8-0.3-2.6c-0.1-0.9-0.3-1.8-0.6-2.6l-0.6-2.7
			c-0.2-0.9-0.6-1.8-0.9-2.6c-0.5-1.8-1.2-3.5-2-5.2c-0.8-1.7-1.5-3.4-2.5-5.4c-1.9-3.8-3.9-8-5.5-12.1c-1.7-4.2-3-8.5-4-12.9
			c-1-4.3-1.4-8.6-1.3-13c0.3-7.1,2.1-14,5.2-20.4c1-2.2,2.2-4.3,3.5-6.3c1.1-1.7,2.1-2.9,2.7-3.7s1-1.3,1-1.3
			c0.5-0.7,1.5-0.8,2.2-0.3c0,0,0,0,0,0c0.5,0.4,0.7,1,0.6,1.6v0.1c0,0-0.5,2.1-1.5,5.7c-0.4,1.8-1,4-1.4,6.5
			c-0.5,2.7-0.8,5.4-1,8.2c-0.2,3.1,0,6.3,0.4,9.3c0.5,3.4,1.3,6.7,2.4,10c1.2,3.6,2.7,7.2,4.3,10.6c1.7,3.7,3.6,7.3,5.5,11.2
			c1,1.8,1.9,4.2,2.9,6.4c0.5,1.1,0.9,2.2,1.3,3.4l1,3.5c0.3,1.2,0.7,2.3,0.9,3.5s0.4,2.4,0.5,3.5c0.4,2.3,0.5,4.7,0.5,7
			c0,4.4-0.5,8.8-1.6,13c-0.5,1.9-1.1,3.8-1.8,5.7c-0.7,1.8-1.5,3.5-2.2,5.1s-1.7,3-2.5,4.4l-2.6,3.7c-1.5,1.9-3,3.8-4.8,5.5
			c-1.1,1.1-2.3,2.1-3.5,3.1c-0.4,0.4-0.9,0.7-1.3,1l0,0c-0.7,0.5-1.7,0.3-2.2-0.5C147.7,203.1,147.7,202.4,147.9,201.9L147.9,201.9
			z"/>
		<path class="st1" d="M237.3,201.1c0,0,0.3-0.5,0.7-1.3s1.1-2.2,1.9-3.8s1.6-3.7,2.5-6s1.7-5,2.4-7.9c0.8-3.1,1.3-6.2,1.6-9.3
			c0.2-1.7,0.2-3.3,0.2-5c0-1.7-0.1-3.5-0.3-5.2c-0.1-0.9-0.2-1.8-0.3-2.6s-0.4-1.8-0.6-2.6l-0.6-2.7c-0.2-0.9-0.6-1.8-0.8-2.6
			c-0.5-1.8-1.2-3.5-2-5.2c-0.8-1.7-1.5-3.4-2.5-5.4c-1.9-3.8-3.8-8-5.5-12.1c-1.7-4.2-3-8.5-4-12.9c-1-4.3-1.4-8.6-1.2-13
			c0.1-3.9,0.7-7.7,1.8-11.5c0.8-3.1,2-6.1,3.4-8.9c1-2.2,2.2-4.3,3.5-6.3c1.1-1.7,2.1-2.9,2.6-3.7l1-1.3c0.5-0.7,1.5-0.8,2.2-0.3
			c0.5,0.4,0.7,1,0.6,1.7v0.1c0,0-0.5,2.1-1.5,5.7c-0.4,1.8-1,4-1.4,6.5c-0.5,2.7-0.8,5.4-1,8.2c-0.2,3.1,0,6.3,0.4,9.3
			c0.5,3.4,1.3,6.7,2.4,10c1.2,3.6,2.7,7.2,4.3,10.6c1.7,3.7,3.6,7.3,5.5,11.2c1,1.8,1.9,4.2,2.9,6.4c0.4,1.1,1,2.2,1.3,3.4l1,3.5
			c0.3,1.2,0.7,2.3,0.9,3.5s0.4,2.4,0.5,3.5c0.4,2.3,0.5,4.7,0.5,7c0,4.4-0.5,8.8-1.6,13c-0.5,1.9-1.1,3.8-1.8,5.7
			c-0.7,1.8-1.5,3.5-2.2,5.1s-1.7,3-2.5,4.4s-1.8,2.5-2.6,3.7c-1.5,1.9-3,3.8-4.8,5.5c-1.1,1.1-2.3,2.1-3.5,3.1
			c-0.4,0.4-0.9,0.7-1.3,1l0,0c-0.8,0.5-1.7,0.2-2.2-0.5C237.1,202.3,237.1,201.6,237.3,201.1L237.3,201.1z"/>
	</g>
</g>
</svg>
