<svg xmlns="http://www.w3.org/2000/svg" xmlns:xlink="http://www.w3.org/1999/xlink" viewBox="0 0 407.62 407.62"><defs><style>.cls-1{fill:#fec514;}.cls-2{fill:url(#linear-gradient);}.cls-3{fill:#fefefe;}.cls-4{fill:#80552a;}</style><linearGradient id="linear-gradient" x1="194.25" y1="291.61" x2="293.96" y2="391.32" gradientUnits="userSpaceOnUse"><stop offset="0" stop-color="#c27317"/><stop offset="0.2" stop-color="#d38a16"/><stop offset="0.53" stop-color="#ebaa15"/><stop offset="0.81" stop-color="#f9be14"/><stop offset="1" stop-color="#fec514"/></linearGradient></defs><title>coffee</title><g id="Layer_2" data-name="Layer 2"><g id="Layer_1-2" data-name="Layer 1"><path class="cls-1" d="M407.62,203.81c0,112.57-91.25,203.81-203.81,203.81S0,316.38,0,203.81,91.25,0,203.81,0,407.62,91.25,407.62,203.81Z"/><path class="cls-2" d="M338.45,356.75l-168-168-31,127,90,90.15A202.94,202.94,0,0,0,338.45,356.75Z"/><path class="cls-3" d="M321.27,255.05c-1.75-17.19-15.67-24.44-27.22-26.7,1.83-14.31,2.26-24.06,2.26-24.06,0-19.25-41.83-34.86-93.43-34.86S109.44,185,109.44,204.29c0,59.41,24.22,103.37,24.22,103.37,5.81,14.12,31,25.82,69.22,25.82s63.41-12.08,69.21-25.82c2.1-4,4-8.21,5.77-12.54,17.5-2.23,29.52-7.41,36.56-15.76C319.94,272.8,322.24,264.63,321.27,255.05Zm-20.74,12.6c-2.2,2.61-6.81,5.67-16,7.84a293.57,293.57,0,0,0,6.71-29.14c5,1.05,11.23,3.71,11.92,10.54C303.82,263,302,265.94,300.53,267.65Z"/><path class="cls-4" d="M202.88,233.1c-50,0-87.39-15.21-87.39-28.81s37.37-28.8,87.39-28.8,87.38,15.2,87.38,28.8S252.89,233.1,202.88,233.1Z"/><path class="cls-3" d="M188.9,201.1s.37-.66.95-1.76,1.45-2.91,2.51-5.08,2.14-4.94,3.38-8,2.23-6.66,3.2-10.51a82.43,82.43,0,0,0,2.07-12.4,51,51,0,0,0,.25-6.69,44.58,44.58,0,0,0-.39-6.89c-.13-1.15-.26-2.32-.39-3.5s-.49-2.32-.73-3.5l-.75-3.52c-.28-1.18-.76-2.32-1.12-3.49a49.71,49.71,0,0,0-2.61-7c-1.06-2.31-1.93-4.51-3.31-7.2-2.54-5.08-5.09-10.59-7.29-16.07a104.31,104.31,0,0,1-5.33-17.08,68.65,68.65,0,0,1-1.65-17.22A62.53,62.53,0,0,1,180.09,56a63.28,63.28,0,0,1,4.53-11.81c1.45-3.43,3.4-6,4.66-8.32,1.43-2.19,2.74-3.8,3.53-4.93l1.3-1.7A2.11,2.11,0,0,1,197.83,31l0,.14s-.68,2.85-2,7.6c-.47,2.42-1.3,5.28-1.8,8.57a88.16,88.16,0,0,0-1.31,10.88,67.32,67.32,0,0,0,.51,12.4,72.39,72.39,0,0,0,3.16,13.32A130.73,130.73,0,0,0,202.14,98c2.3,4.88,4.72,9.71,7.32,14.86,1.32,2.39,2.54,5.53,3.8,8.44.59,1.49,1.33,2.9,1.78,4.45l1.3,4.62c.4,1.55.9,3.05,1.19,4.62s.46,3.13.69,4.69a53.47,53.47,0,0,1,.65,9.24,67.66,67.66,0,0,1-2.15,17.26,79.42,79.42,0,0,1-2.4,7.59c-.89,2.39-2,4.58-3,6.72s-2.25,4-3.3,5.82c-1.21,1.73-2.36,3.36-3.43,4.9a67.5,67.5,0,0,1-6.32,7.27,52.93,52.93,0,0,1-4.6,4.13,16.73,16.73,0,0,1-1.79,1.32l0,0a2.13,2.13,0,0,1-3-2.86Z"/><path class="cls-3" d="M147.93,201.89s.28-.5.71-1.33,1.1-2.19,1.9-3.83,1.61-3.72,2.54-6,1.68-5,2.42-7.91a62.89,62.89,0,0,0,1.55-9.35,39.92,39.92,0,0,0,.2-5,33.78,33.78,0,0,0-.31-5.19c-.09-.87-.19-1.75-.29-2.63a24.27,24.27,0,0,0-.55-2.64l-.56-2.66c-.21-.88-.58-1.75-.85-2.63a37.81,37.81,0,0,0-2-5.24c-.8-1.74-1.46-3.4-2.49-5.42-1.92-3.83-3.85-8-5.49-12.11a76.18,76.18,0,0,1-4-12.87,52.27,52.27,0,0,1-1.25-13,50.58,50.58,0,0,1,5.22-20.38,59,59,0,0,1,3.52-6.27c1.07-1.65,2.06-2.86,2.66-3.71s1-1.28,1-1.28a1.58,1.58,0,0,1,2.22-.29,1.56,1.56,0,0,1,.58,1.62l0,.11s-.51,2.14-1.49,5.72c-.35,1.83-1,4-1.35,6.46a67.8,67.8,0,0,0-1,8.19,50.57,50.57,0,0,0,.38,9.35,54.27,54.27,0,0,0,2.39,10,96.18,96.18,0,0,0,4.34,10.64c1.72,3.67,3.55,7.31,5.51,11.19,1,1.8,1.91,4.16,2.86,6.36a36,36,0,0,1,1.34,3.35l1,3.48c.3,1.17.68,2.3.9,3.48s.35,2.36.52,3.53a41.07,41.07,0,0,1,.49,7,51.54,51.54,0,0,1-1.62,13,58.81,58.81,0,0,1-1.82,5.71c-.67,1.8-1.52,3.46-2.23,5.07s-1.7,3-2.48,4.38l-2.59,3.7a50.11,50.11,0,0,1-4.76,5.47,38.36,38.36,0,0,1-3.47,3.11,12.81,12.81,0,0,1-1.34,1h0a1.6,1.6,0,0,1-2.25-2.15Z"/><path class="cls-3" d="M237.3,201.09s.28-.5.72-1.33,1.09-2.19,1.9-3.83,1.61-3.72,2.53-6,1.69-5,2.42-7.92a61.26,61.26,0,0,0,1.56-9.34,39.94,39.94,0,0,0,.19-5,33.69,33.69,0,0,0-.3-5.19c-.09-.87-.19-1.75-.29-2.64s-.37-1.75-.55-2.63l-.57-2.66c-.2-.88-.57-1.75-.84-2.63a36.88,36.88,0,0,0-2-5.24c-.8-1.74-1.46-3.4-2.49-5.42-1.92-3.83-3.84-8-5.5-12.11a78.35,78.35,0,0,1-4-12.87,52.25,52.25,0,0,1-1.24-13,47.1,47.1,0,0,1,1.81-11.48,47.89,47.89,0,0,1,3.41-8.9,56.36,56.36,0,0,1,3.52-6.27c1.07-1.65,2.06-2.86,2.65-3.71l1-1.28a1.58,1.58,0,0,1,2.8,1.33l0,.11s-.51,2.14-1.49,5.72c-.36,1.82-1,4-1.35,6.46a63.79,63.79,0,0,0-1,8.19,50.57,50.57,0,0,0,.38,9.35,55.23,55.23,0,0,0,2.38,10,99.25,99.25,0,0,0,4.34,10.63c1.73,3.68,3.55,7.31,5.52,11.2,1,1.79,1.91,4.16,2.86,6.35.44,1.13,1,2.19,1.34,3.36l1,3.48c.3,1.16.68,2.3.89,3.47s.36,2.36.53,3.54a39.1,39.1,0,0,1,.48,7,51.16,51.16,0,0,1-1.61,13,59.7,59.7,0,0,1-1.82,5.71c-.66,1.8-1.51,3.46-2.23,5.06s-1.7,3-2.49,4.39-1.78,2.54-2.58,3.69a50.45,50.45,0,0,1-4.76,5.48,41.52,41.52,0,0,1-3.47,3.11,15,15,0,0,1-1.34,1l0,0a1.61,1.61,0,0,1-2.26-2.15Z"/></g></g></svg>