<svg xmlns="http://www.w3.org/2000/svg" viewBox="0 0 145 145"><defs><style>.cls-1{fill:#fbb03b;}.cls-2{fill:#4d4d4d;}.cls-3{fill:gray;}.cls-4{fill:#acd2e2;}.cls-5{fill:#cbdbe2;}</style></defs><title>Asset 6</title><g id="Layer_2" data-name="Layer 2"><g id="objects"><circle class="cls-1" cx="72.5" cy="72.5" r="72.5"/><rect class="cls-2" x="60.55" y="63.57" width="12.25" height="7.99" transform="translate(-28.25 66.94) rotate(-45)"/><path class="cls-3" d="M64.81,13.74a36.74,36.74,0,1,1-52,0A36.74,36.74,0,0,1,64.81,13.74Z"/><path class="cls-4" d="M61.47,17.09a32,32,0,1,1-45.27,0A32,32,0,0,1,61.47,17.09Z"/><path class="cls-5" d="M16.2,17.09,61.47,62.36A32,32,0,0,0,16.2,17.09Z"/><path class="cls-3" d="M74.05,65.83l-9.32,9.33a1.23,1.23,0,0,0,0,1.74l52,53.75,2.71,2.72a9.05,9.05,0,0,0,12.8-12.8l-2.71-2.71-53.76-52A1.23,1.23,0,0,0,74.05,65.83Z"/><path class="cls-2" d="M127.5,125.79a2,2,0,0,1,0,2.82h0a2,2,0,0,1-2.82,0L71.54,75.47a2,2,0,0,1,0-2.82h0a2,2,0,0,1,2.82,0Z"/></g></g></svg>